SplineFontDB: 3.0
FontName: Monda-Regular
FullName: Monda Regular
FamilyName: Monda
Weight: Normal
ItalicAngle: 0
UnderlinePosition: 0
UnderlineWidth: 0
Ascent: 1638
Descent: 410
UFOAscent: 1506
UFODescent: -695
LayerCount: 2
Layer: 0 0 "Back"  1
Layer: 1 0 "Fore"  0
OS2Version: 0
OS2_WeightWidthSlopeOnly: 0
OS2_UseTypoMetrics: 0
CreationTime: 1391962146
ModificationTime: 1391963132
PfmFamily: 0
TTFWeight: 400
TTFWidth: 5
LineGap: 0
VLineGap: 0
OS2TypoAscent: 0
OS2TypoAOffset: 1
OS2TypoDescent: 0
OS2TypoDOffset: 1
OS2TypoLinegap: 0
OS2WinAscent: 0
OS2WinAOffset: 1
OS2WinDescent: 0
OS2WinDOffset: 1
HheadAscent: 0
HheadAOffset: 1
HheadDescent: 0
HheadDOffset: 1
OS2Vendor: 'PfEd'
Lookup: 4 0 1 "'liga' Standard Ligatures lookup 0"  {"'liga' Standard Ligatures lookup 0 subtable"  } ['liga' ('latn' <'dflt' > 'grek' <'dflt' > 'DFLT' <'dflt' > ) ]
Lookup: 6 0 0 "'locl' Localized Forms in Latin lookup 1"  {"'locl' Localized Forms in Latin lookup 1 contextual 0"  "'locl' Localized Forms in Latin lookup 1 contextual 1"  } ['locl' ('latn' <'CAT ' 'dflt' > ) ]
Lookup: 4 0 0 "Ligature Substitution lookup 2"  {"Ligature Substitution lookup 2 subtable"  } []
Lookup: 4 0 0 "Ligature Substitution lookup 3"  {"Ligature Substitution lookup 3 subtable"  } []
Lookup: 1 0 0 "'locl' Localized Forms in Latin lookup 4"  {"'locl' Localized Forms in Latin lookup 4 subtable"  } ['locl' ('latn' <'ROM ' 'dflt' > ) ]
Lookup: 1 0 0 "'locl' Localized Forms in Latin lookup 5"  {"'locl' Localized Forms in Latin lookup 5 subtable"  } ['locl' ('latn' <'MOL ' 'dflt' > ) ]
Lookup: 1 0 0 "'locl' Localized Forms in Latin lookup 6"  {"'locl' Localized Forms in Latin lookup 6 subtable"  } ['locl' ('latn' <'KAZ ' 'dflt' > ) ]
Lookup: 1 0 0 "'locl' Localized Forms in Latin lookup 7"  {"'locl' Localized Forms in Latin lookup 7 subtable"  } ['locl' ('latn' <'TAT ' 'dflt' > ) ]

StartChar: A
Encoding: 34 65 1
Width: 1428
VWidth: 0
Flags: HW
PickledData: "(dp1
S'org.robofab.postScriptHintData'
p2
(dp3
s."
AnchorPoint: "top" 716 1446 basechar 0
AnchorPoint: "ogonek" 1285 0 basechar 0
LayerCount: 2
Fore
SplineSet
86 0 m 257
 295 0 l 257
 394 282 l 257
 1039 282 l 257
 1137 0 l 257
 1342 0 l 257
 802 1446 l 257
 625 1446 l 257
 86 0 l 257
442 425 m 257
 719 1216 l 257
 993 425 l 257
 442 425 l 257
EndSplineSet
Substitution2: "Single Substitution lookup 14 subtable" ordfeminine
EndChar

StartChar: AE
Encoding: 135 198 2
Width: 1686
VWidth: 0
Flags: HW
PickledData: "(dp1
S'org.robofab.postScriptHintData'
p2
(dp3
s."
AnchorPoint: "top" 1017 1446 basechar 0
LayerCount: 2
Fore
SplineSet
98 3 m 257
 302 0 l 257
 375 282 l 257
 874 282 l 257
 874 0 l 257
 1559 0 l 257
 1559 150 l 257
 1065 150 l 257
 1065 664 l 257
 1489 664 l 257
 1489 814 l 257
 1065 814 l 257
 1065 1296 l 257
 1550 1296 l 257
 1550 1446 l 257
 492 1446 l 257
 98 3 l 257
411 417 m 257
 632 1296 l 257
 874 1296 l 257
 874 417 l 257
 411 417 l 257
EndSplineSet
EndChar

StartChar: B
Encoding: 35 66 18
Width: 1420
VWidth: 0
Flags: HW
PickledData: "(dp1
S'org.robofab.postScriptHintData'
p2
(dp3
s."
AnchorPoint: "top" 696 1446 basechar 0
LayerCount: 2
Fore
SplineSet
218 0 m 257
 786 0 l 258
 1138 0 1292 124 1292 411 c 256
 1292 595 1209 735 1040 773 c 257
 1174 819 1219 922 1222 1049 c 257
 1222 1301 1143 1446 742 1446 c 258
 218 1446 l 257
 218 0 l 257
420 149 m 257
 420 696 l 257
 820 696 l 258
 1041 696 1094 565 1094 433 c 256
 1094 197 995 149 771 149 c 258
 420 149 l 257
420 833 m 257
 420 1295 l 257
 711 1295 l 258
 955 1295 1021 1256 1021 1047 c 256
 1021 917 973 833 791 833 c 258
 420 833 l 257
EndSplineSet
EndChar

StartChar: C
Encoding: 36 67 20
Width: 1456
VWidth: 0
Flags: HW
PickledData: "(dp1
S'org.robofab.postScriptHintData'
p2
(dp3
s."
AnchorPoint: "top" 765 1446 basechar 0
AnchorPoint: "bot" 765 0 basechar 0
LayerCount: 2
Fore
SplineSet
761 -22 m 256
 1221 -22 1298 147 1300 438 c 256
 1300 442 1300 445 1300 448 c 257
 1109 448 l 257
 1109 440 1109 432 1109 424 c 256
 1104 165 1016 140 765 140 c 256
 509 140 384 199 384 455 c 258
 384 977 l 258
 384 1234 505 1306 759 1306 c 256
 1017 1306 1103 1269 1109 1007 c 256
 1109 998 1109 989 1109 980 c 257
 1300 997 l 257
 1300 1001 1300 1006 1300 1010 c 256
 1297 1308 1197 1468 759 1468 c 256
 274 1468 182 1246 182 940 c 258
 182 486 l 258
 182 185 278 -22 761 -22 c 256
EndSplineSet
EndChar

StartChar: D
Encoding: 37 68 27
Width: 1522
VWidth: 0
Flags: HW
PickledData: "(dp1
S'org.robofab.postScriptHintData'
p2
(dp3
s."
AnchorPoint: "top" 716 1446 basechar 0
AnchorPoint: "mid" 357 762 basechar 0
LayerCount: 2
Fore
SplineSet
420 150 m 257
 420 1295 l 257
 774 1295 l 258
 980 1295 1139 1238 1139 971 c 258
 1139 462 l 258
 1139 196 982 150 774 150 c 258
 420 150 l 257
218 0 m 257
 794 0 l 258
 1161 0 1340 169 1340 482 c 258
 1340 959 l 258
 1340 1235 1193 1446 792 1446 c 258
 218 1446 l 257
 218 0 l 257
EndSplineSet
EndChar

StartChar: Delta
Encoding: 418 916 31
AltUni2: 002206.ffffffff.0
Width: 1428
VWidth: 0
Flags: HW
PickledData: "(dp1
S'org.robofab.postScriptHintData'
p2
(dp3
s."
LayerCount: 2
Fore
SplineSet
161 0 m 257
 1260 0 l 257
 802 1446 l 257
 625 1446 l 257
 161 0 l 257
392 143 m 257
 719 1196 l 257
 1036 143 l 257
 392 143 l 257
EndSplineSet
EndChar

StartChar: E
Encoding: 38 69 34
Width: 1255
VWidth: 0
Flags: HW
PickledData: "(dp1
S'org.robofab.postScriptHintData'
p2
(dp3
s."
AnchorPoint: "top" 676 1446 basechar 0
AnchorPoint: "ogonek" 844 0 basechar 0
AnchorPoint: "bot" 628 0 basechar 0
LayerCount: 2
Fore
SplineSet
218 0 m 257
 1133 0 l 257
 1133 150 l 257
 419 150 l 257
 419 670 l 257
 1039 670 l 257
 1039 820 l 257
 419 820 l 257
 419 1296 l 257
 1121 1296 l 257
 1121 1446 l 257
 218 1446 l 257
 218 0 l 257
EndSplineSet
EndChar

StartChar: Eng
Encoding: 267 330 45
Width: 1582
VWidth: 0
Flags: HW
PickledData: "(dp1
S'org.robofab.postScriptHintData'
p2
(dp3
s."
LayerCount: 2
Fore
SplineSet
821 -373 m 257
 1152 -373 1370 -259 1370 122 c 258
 1370 1446 l 257
 1193 1446 l 257
 1193 470 l 257
 365 1446 l 257
 212 1446 l 257
 212 0 l 257
 389 0 l 257
 389 1104 l 257
 1182 190 l 257
 1182 115 l 258
 1182 -197 1037 -210 793 -232 c 257
 821 -373 l 257
EndSplineSet
EndChar

StartChar: Euro
Encoding: 467 8364 49
Width: 1460
VWidth: 0
Flags: HW
PickledData: "(dp1
S'org.robofab.postScriptHintData'
p2
(dp3
s."
LayerCount: 2
Fore
SplineSet
743 819 m 257
 743 953 l 257
 1 953 l 257
 1 819 l 257
 743 819 l 257
743 505 m 257
 743 639 l 257
 1 639 l 257
 1 505 l 257
 743 505 l 257
EndSplineSet
Refer: 20 67 N 1 0 0 1 0 0 2
EndChar

StartChar: F
Encoding: 39 70 50
Width: 1159
VWidth: 0
Flags: HW
PickledData: "(dp1
S'org.robofab.postScriptHintData'
p2
(dp3
s."
AnchorPoint: "top" 656 1446 basechar 0
LayerCount: 2
Fore
SplineSet
218 0 m 257
 419 0 l 257
 419 664 l 257
 1003 664 l 257
 1003 814 l 257
 419 814 l 257
 419 1296 l 257
 1039 1296 l 257
 1039 1446 l 257
 218 1446 l 257
 218 0 l 257
EndSplineSet
EndChar

StartChar: G
Encoding: 40 71 52
Width: 1556
VWidth: 0
Flags: HW
PickledData: "(dp1
S'org.robofab.postScriptHintData'
p2
(dp3
s."
AnchorPoint: "top" 776 1446 basechar 0
AnchorPoint: "bot" 778 0 basechar 0
LayerCount: 2
Fore
SplineSet
788 1306 m 256
 1071 1306 1160 1269 1160 1001 c 257
 1344 1016 l 257
 1344 1025 1344 1034 1344 1043 c 256
 1338 1298 1249 1468 788 1468 c 256
 303 1468 186 1246 186 940 c 258
 186 486 l 258
 186 185 305 -22 788 -22 c 256
 1074 -22 1201 89 1225 246 c 257
 1250 0 l 257
 1360 0 l 257
 1360 735 l 257
 815 735 l 257
 815 588 l 257
 1158 588 l 257
 1158 455 l 258
 1158 199 1046 140 788 140 c 256
 532 140 388 199 388 455 c 258
 388 977 l 258
 388 1234 534 1306 788 1306 c 256
EndSplineSet
EndChar

StartChar: H
Encoding: 41 72 59
Width: 1528
VWidth: 0
Flags: HW
PickledData: "(dp1
S'org.robofab.postScriptHintData'
p2
(dp3
s."
AnchorPoint: "top" 754 1446 basechar 0
AnchorPoint: "center" 764 0 basechar 0
LayerCount: 2
Fore
SplineSet
212 0 m 257
 413 0 l 257
 413 659 l 257
 1115 659 l 257
 1115 0 l 257
 1316 0 l 257
 1316 1446 l 257
 1115 1446 l 257
 1115 807 l 257
 413 807 l 257
 413 1446 l 257
 212 1446 l 257
 212 0 l 257
EndSplineSet
EndChar

StartChar: Hbar
Encoding: 231 294 60
Width: 1536
VWidth: 0
Flags: HW
PickledData: "(dp1
S'org.robofab.postScriptHintData'
p2
(dp3
s."
LayerCount: 2
Fore
SplineSet
144 1060 m 257
 1392 1060 l 257
 1392 1184 l 257
 144 1184 l 257
 144 1060 l 257
EndSplineSet
Refer: 59 72 N 1 0 0 1 0 0 2
EndChar

StartChar: I
Encoding: 42 73 62
Width: 1132
VWidth: 0
Flags: HW
PickledData: "(dp1
S'org.robofab.postScriptHintData'
p2
(dp3
s."
AnchorPoint: "top" 568 1446 basechar 0
AnchorPoint: "ogonek" 641 0 basechar 0
LayerCount: 2
Fore
SplineSet
190 0 m 257
 942 0 l 257
 942 150 l 257
 667 150 l 257
 667 1297 l 257
 942 1297 l 257
 942 1446 l 257
 190 1446 l 257
 190 1297 l 257
 466 1297 l 257
 466 150 l 257
 190 150 l 257
 190 0 l 257
EndSplineSet
EndChar

StartChar: J
Encoding: 43 74 76
Width: 1206
VWidth: 0
Flags: HW
PickledData: "(dp1
S'org.robofab.postScriptHintData'
p2
(dp3
s."
AnchorPoint: "top" 645 1446 basechar 0
LayerCount: 2
Fore
SplineSet
522 -17 m 256
 847 -17 988 157 988 431 c 258
 988 1446 l 257
 234 1446 l 257
 234 1281 l 257
 787 1281 l 257
 787 435 l 258
 787 248 707 148 516 148 c 256
 370 148 204 203 157 225 c 257
 102 70 l 257
 167 36 354 -17 522 -17 c 256
EndSplineSet
EndChar

StartChar: K
Encoding: 44 75 78
Width: 1418
VWidth: 0
Flags: HW
PickledData: "(dp1
S'org.robofab.postScriptHintData'
p2
(dp3
s."
AnchorPoint: "top" 733 1446 basechar 0
AnchorPoint: "bot" 709 0 basechar 0
LayerCount: 2
Fore
SplineSet
218 0 m 257
 419 0 l 257
 419 468 l 257
 637 690 l 257
 1127 0 l 257
 1350 0 l 257
 778 798 l 257
 1321 1446 l 257
 1103 1446 l 257
 875 1183 641 927 419 657 c 257
 419 1446 l 257
 218 1446 l 257
 218 0 l 257
EndSplineSet
EndChar

StartChar: L
Encoding: 45 76 81
Width: 1145
VWidth: 0
Flags: HW
PickledData: "(dp1
S'org.robofab.postScriptHintData'
p2
(dp3
s."
AnchorPoint: "mid" 307 725 basechar 0
AnchorPoint: "top" 595 1446 basechar 0
AnchorPoint: "bot" 623 0 basechar 0
LayerCount: 2
Fore
SplineSet
218 0 m 257
 1068 0 l 257
 1068 155 l 257
 419 155 l 257
 419 1446 l 257
 218 1446 l 257
 218 0 l 257
EndSplineSet
EndChar

StartChar: Lslash
Encoding: 258 321 87
Width: 1145
VWidth: 0
Flags: HW
PickledData: "(dp1
S'org.robofab.postScriptHintData'
p2
(dp3
s."
LayerCount: 2
Fore
SplineSet
52 616 m 257
 826 1002 l 257
 826 1126 l 257
 52 740 l 257
 52 616 l 257
EndSplineSet
Refer: 81 76 N 1 0 0 1 0 0 2
EndChar

StartChar: M
Encoding: 46 77 88
Width: 1778
VWidth: 0
Flags: HW
PickledData: "(dp1
S'org.robofab.postScriptHintData'
p2
(dp3
s."
AnchorPoint: "top" 886 1446 basechar 0
LayerCount: 2
Fore
SplineSet
218 0 m 257
 410 0 l 257
 410 1117 l 257
 816 458 l 257
 965 458 l 257
 1370 1121 l 257
 1370 0 l 257
 1560 0 l 257
 1560 1446 l 257
 1382 1446 l 257
 890 638 l 257
 403 1446 l 257
 218 1446 l 257
 218 0 l 257
EndSplineSet
EndChar

StartChar: N
Encoding: 47 78 90
Width: 1594
VWidth: 0
Flags: HW
PickledData: "(dp1
S'org.robofab.postScriptHintData'
p2
(dp3
s."
AnchorPoint: "top" 797 1446 basechar 0
AnchorPoint: "bot" 797 0 basechar 0
LayerCount: 2
Fore
SplineSet
218 0 m 257
 395 0 l 257
 395 1104 l 257
 1197 0 l 257
 1376 0 l 257
 1376 1446 l 257
 1199 1446 l 257
 1199 290 l 257
 371 1446 l 257
 218 1446 l 257
 218 0 l 257
EndSplineSet
EndChar

StartChar: O
Encoding: 48 79 97
Width: 1546
VWidth: 0
Flags: HW
PickledData: "(dp1
S'org.robofab.postScriptHintData'
p2
(dp3
s."
AnchorPoint: "top" 782 1446 basechar 0
AnchorPoint: "ogonek" 818 0 basechar 0
AnchorPoint: "bot" 782 0 basechar 0
LayerCount: 2
Fore
SplineSet
782 140 m 256
 526 140 388 199 388 455 c 258
 388 978 l 258
 388 1235 528 1306 782 1306 c 256
 1038 1306 1159 1235 1159 978 c 258
 1159 455 l 258
 1159 199 1040 140 782 140 c 256
782 -22 m 256
 1247 -22 1360 203 1360 500 c 258
 1360 928 l 258
 1360 1234 1249 1468 782 1468 c 256
 297 1468 186 1247 186 941 c 258
 186 486 l 258
 186 185 299 -22 782 -22 c 256
EndSplineSet
Substitution2: "Single Substitution lookup 15 subtable" ordmasculine
EndChar

StartChar: OE
Encoding: 275 338 98
Width: 1557
VWidth: 0
Flags: HW
PickledData: "(dp1
S'org.robofab.postScriptHintData'
p2
(dp3
s."
AnchorPoint: "top" 779 0 basechar 0
LayerCount: 2
Fore
SplineSet
775 0 m 258
 1399 0 l 257
 1399 150 l 257
 976 150 l 257
 976 664 l 257
 1329 664 l 257
 1329 814 l 257
 976 814 l 257
 976 1296 l 257
 1390 1296 l 257
 1390 1446 l 257
 775 1446 l 258
 290 1446 183 1224 183 918 c 258
 183 510 l 258
 183 209 292 0 775 0 c 258
765 150 m 258
 516 150 385 226 385 479 c 258
 385 955 l 258
 385 1208 517 1295 764 1295 c 258
 775 1295 l 257
 775 150 l 257
 765 150 l 258
EndSplineSet
EndChar

StartChar: Ohm
Encoding: 470 8486 106
Width: 1586
VWidth: 0
Flags: HW
PickledData: "(dp1
S'org.robofab.postScriptHintData'
p2
(dp3
s."
LayerCount: 2
Fore
SplineSet
793 1468 m 256
 435 1468 186 1372 186 716 c 256
 186 365 297 219 452 141 c 257
 207 141 l 257
 207 0 l 257
 697 0 l 257
 697 141 l 257
 468 225 386 360 386 736 c 256
 386 1248 533 1304 793 1304 c 256
 1053 1304 1200 1248 1200 736 c 256
 1200 360 1118 225 889 141 c 257
 889 0 l 257
 1379 0 l 257
 1379 141 l 257
 1134 141 l 257
 1289 219 1400 365 1400 716 c 256
 1400 1372 1151 1468 793 1468 c 256
EndSplineSet
EndChar

StartChar: Oslash
Encoding: 153 216 112
Width: 1546
VWidth: 0
Flags: HW
PickledData: "(dp1
S'org.robofab.postScriptHintData'
p2
(dp3
s."
AnchorPoint: "top" 791 1446 basechar 0
LayerCount: 2
Fore
SplineSet
479 -195 m 257
 1158 1638 l 257
 1054 1676 l 257
 376 -157 l 257
 479 -195 l 257
EndSplineSet
Refer: 97 79 N 1 0 0 1 0 0 2
EndChar

StartChar: P
Encoding: 49 80 115
Width: 1326
VWidth: 0
Flags: HW
PickledData: "(dp1
S'org.robofab.postScriptHintData'
p2
(dp3
s."
AnchorPoint: "top" 716 1446 basechar 0
LayerCount: 2
Fore
SplineSet
218 0 m 257
 420 0 l 257
 420 529 l 257
 793 529 l 258
 1039 529 1198 645 1198 991 c 256
 1198 1320 1039 1446 796 1446 c 258
 218 1446 l 257
 218 0 l 257
420 682 m 257
 420 1293 l 257
 802 1293 l 258
 983 1293 996 1118 996 977 c 256
 996 828 972 682 797 682 c 258
 420 682 l 257
EndSplineSet
EndChar

StartChar: Q
Encoding: 50 81 117
Width: 1542
VWidth: 0
Flags: HW
PickledData: "(dp1
S'org.robofab.postScriptHintData'
p2
(dp3
s."
LayerCount: 2
Fore
SplineSet
944 -384 m 257
 1085 -308 l 257
 895 -17 l 257
 1266 18 1360 229 1360 500 c 258
 1360 928 l 258
 1360 1234 1249 1468 782 1468 c 256
 297 1468 186 1247 186 941 c 258
 186 486 l 258
 186 200 288 -2 714 -21 c 257
 944 -384 l 257
782 140 m 256
 526 140 388 199 388 455 c 258
 388 978 l 258
 388 1235 528 1306 782 1306 c 256
 1038 1306 1159 1235 1159 978 c 258
 1159 455 l 258
 1159 199 1040 140 782 140 c 256
EndSplineSet
EndChar

StartChar: R
Encoding: 51 82 118
Width: 1464
VWidth: 0
Flags: HW
PickledData: "(dp1
S'org.robofab.postScriptHintData'
p2
(dp3
s."
AnchorPoint: "top" 716 1446 basechar 0
AnchorPoint: "bot" 732 0 basechar 0
LayerCount: 2
Fore
SplineSet
218 0 m 257
 420 0 l 257
 420 599 l 257
 420 599 865 600 876 600 c 257
 1163 0 l 257
 1370 0 l 257
 1063 636 l 257
 1184 687 1267 784 1267 1018 c 256
 1267 1341 1106 1446 863 1446 c 258
 218 1446 l 257
 218 0 l 257
420 752 m 257
 420 1293 l 257
 869 1293 l 258
 1050 1293 1065 1139 1065 1000 c 256
 1065 861 1021 752 846 752 c 258
 420 752 l 257
EndSplineSet
EndChar

StartChar: S
Encoding: 52 83 124
Width: 1304
VWidth: 0
Flags: HW
PickledData: "(dp1
S'org.robofab.postScriptHintData'
p2
(dp3
s."
AnchorPoint: "top" 676 1446 basechar 0
AnchorPoint: "bot" 662 0 basechar 0
LayerCount: 2
Fore
SplineSet
691 -22 m 256
 1027 -22 1164 139 1164 406 c 256
 1164 625 1076 718 879 784 c 258
 515 907 l 258
 392 948 366 1000 366 1088 c 0
 366 1103 367 1120 368 1137 c 256
 376 1260 492 1306 691 1306 c 256
 879 1306 1005 1257 1092 1210 c 257
 1141 1367 l 257
 1048 1425 903 1468 656 1468 c 256
 379 1468 171 1366 171 1089 c 256
 171 892 253 802 453 736 c 258
 802 620 l 257
 949 573 978 518 978 437 c 256
 978 229 922 140 687 140 c 256
 510 140 325 202 215 267 c 257
 144 113 l 257
 296 25 476 -22 691 -22 c 256
EndSplineSet
EndChar

StartChar: Sigma
Encoding: 419 931 132
Width: 1156
VWidth: 0
Flags: HW
PickledData: "(dp1
S'org.robofab.postScriptHintData'
p2
(dp3
s."
LayerCount: 2
Fore
SplineSet
1076 0 m 257
 1076 162 l 257
 321 162 l 257
 777 738 l 257
 777 807 l 257
 317 1286 l 257
 1076 1286 l 257
 1076 1446 l 257
 112 1446 l 257
 112 1298 l 257
 597 762 l 257
 112 155 l 257
 112 0 l 257
 1076 0 l 257
EndSplineSet
EndChar

StartChar: T
Encoding: 53 84 133
Width: 1204
VWidth: 0
Flags: HW
PickledData: "(dp1
S'org.robofab.postScriptHintData'
p2
(dp3
s."
AnchorPoint: "bot" 602 0 basechar 0
AnchorPoint: "top" 614 1446 basechar 0
AnchorPoint: "mid" 603 753 basechar 0
AnchorPoint: "center" 602 0 basechar 0
LayerCount: 2
Fore
SplineSet
501 0 m 257
 702 0 l 257
 702 1281 l 257
 1120 1281 l 257
 1120 1446 l 257
 84 1446 l 257
 84 1281 l 257
 501 1281 l 257
 501 0 l 257
EndSplineSet
EndChar

StartChar: Thorn
Encoding: 159 222 138
Width: 1320
VWidth: 0
Flags: HW
PickledData: "(dp1
S'org.robofab.postScriptHintData'
p2
(dp3
s."
LayerCount: 2
Fore
SplineSet
212 0 m 257
 414 0 l 257
 414 331 l 257
 787 331 l 258
 1033 331 1192 427 1192 773 c 256
 1192 1102 1031 1208 788 1208 c 258
 414 1208 l 257
 414 1446 l 257
 212 1446 l 257
 212 0 l 257
414 484 m 257
 414 1055 l 257
 794 1055 l 258
 975 1055 990 900 990 759 c 256
 990 610 966 484 791 484 c 258
 414 484 l 257
EndSplineSet
EndChar

StartChar: U
Encoding: 54 85 139
Width: 1538
VWidth: 0
Flags: HW
PickledData: "(dp1
S'org.robofab.postScriptHintData'
p2
(dp3
s."
AnchorPoint: "top" 779 1446 basechar 0
AnchorPoint: "ogonek" 841 0 basechar 0
LayerCount: 2
Fore
SplineSet
779 -22 m 256
 1232 -22 1338 205 1338 473 c 258
 1338 1446 l 257
 1136 1446 l 257
 1136 452 l 258
 1136 186 982 140 779 140 c 256
 578 140 402 186 402 452 c 258
 402 1446 l 257
 200 1446 l 257
 200 473 l 258
 200 202 306 -22 779 -22 c 256
EndSplineSet
EndChar

StartChar: V
Encoding: 55 86 153
Width: 1386
VWidth: 0
Flags: HW
PickledData: "(dp1
S'org.robofab.postScriptHintData'
p2
(dp3
s."
LayerCount: 2
Fore
SplineSet
602 0 m 257
 779 0 l 257
 1300 1446 l 257
 1091 1446 l 257
 692 294 l 257
 293 1446 l 257
 86 1446 l 257
 602 0 l 257
EndSplineSet
EndChar

StartChar: W
Encoding: 56 87 154
Width: 2048
VWidth: 0
Flags: HW
PickledData: "(dp1
S'org.robofab.postScriptHintData'
p2
(dp3
s."
AnchorPoint: "top" 1037 1446 basechar 0
LayerCount: 2
Fore
SplineSet
522 0 m 257
 674 0 l 257
 1037 1232 l 257
 1390 0 l 257
 1542 0 l 257
 1936 1446 l 257
 1753 1446 l 257
 1462 346 l 257
 1133 1446 l 257
 918 1446 l 257
 603 346 l 257
 296 1446 l 257
 112 1446 l 257
 522 0 l 257
EndSplineSet
EndChar

StartChar: X
Encoding: 57 88 159
Width: 1336
VWidth: 0
Flags: HW
PickledData: "(dp1
S'org.robofab.postScriptHintData'
p2
(dp3
s."
LayerCount: 2
Fore
SplineSet
94 0 m 257
 306 0 l 257
 667 568 l 257
 1024 0 l 257
 1242 0 l 257
 773 734 l 257
 1227 1446 l 257
 1010 1446 l 257
 669 898 l 257
 319 1446 l 257
 116 1446 l 257
 565 731 l 257
 94 0 l 257
EndSplineSet
EndChar

StartChar: Y
Encoding: 58 89 160
Width: 1318
VWidth: 0
Flags: HW
PickledData: "(dp1
S'org.robofab.postScriptHintData'
p2
(dp3
s."
AnchorPoint: "top" 679 1446 basechar 0
LayerCount: 2
Fore
SplineSet
560 0 m 257
 761 0 l 257
 761 568 l 257
 1270 1446 l 257
 1063 1446 l 257
 661 744 l 257
 261 1446 l 257
 48 1446 l 257
 560 568 l 257
 560 0 l 257
EndSplineSet
EndChar

StartChar: Z
Encoding: 59 90 167
Width: 1242
VWidth: 0
Flags: HW
PickledData: "(dp1
S'org.robofab.postScriptHintData'
p2
(dp3
s."
AnchorPoint: "top" 663 1446 basechar 0
LayerCount: 2
Fore
SplineSet
180 0 m 257
 1096 0 l 257
 1096 165 l 257
 402 165 l 257
 1083 1295 l 257
 1083 1446 l 257
 211 1446 l 257
 211 1281 l 257
 862 1281 l 257
 180 150 l 257
 180 0 l 257
EndSplineSet
EndChar

StartChar: a
Encoding: 66 97 171
Width: 1172
VWidth: 0
Flags: HW
PickledData: "(dp1
S'org.robofab.postScriptHintData'
p2
(dp3
sS'com.typemytype.robofont.layerData'
p4
(dp5
s."
AnchorPoint: "top" 584 1060 basechar 0
AnchorPoint: "ogonek" 1005 10 basechar 0
LayerCount: 2
Fore
SplineSet
144 269 m 0
 144 94 227 -22 451 -22 c 256
 646 -22 749 78 796 150 c 257
 828 50 879 -8 1020 -8 c 258
 1058 -8 l 257
 1080 136 l 257
 989 136 969 156 969 268 c 258
 969 720 l 258
 969 938 872 1080 592 1080 c 256
 314 1080 174 988 174 779 c 258
 174 731 l 257
 355 731 l 257
 355 778 l 258
 355 863 373 936 586 936 c 256
 755 936 781 864 781 778 c 256
 781 707 769 682 727 667 c 258
 506 586 l 258
 224 483 144 412 144 269 c 0
487 118 m 256
 356 118 323 159 323 273 c 0
 323 361 384 405 542 466 c 258
 781 557 l 257
 781 297 l 257
 751 199 600 118 487 118 c 256
EndSplineSet
Substitution2: "Single Substitution lookup 14 subtable" ordfeminine
EndChar

StartChar: acute
Encoding: 117 180 176
Width: 616
VWidth: 0
Flags: HW
PickledData: "(dp1
S'org.robofab.postScriptHintData'
p2
(dp3
s."
AnchorPoint: "top" 253 1060 mark 0
LayerCount: 2
Fore
SplineSet
204 1204 m 257
 332 1204 l 257
 567 1585 l 257
 342 1585 l 257
 204 1204 l 257
EndSplineSet
EndChar

StartChar: ae
Encoding: 167 230 180
Width: 1741
VWidth: 0
Flags: HW
PickledData: "(dp1
S'org.robofab.postScriptHintData'
p2
(dp3
s."
AnchorPoint: "top" 896 1060 basechar 0
LayerCount: 2
Fore
SplineSet
469 -22 m 256
 706 -22 807 68 858 178 c 257
 900 75 996 -22 1189 -22 c 256
 1479 -22 1582 60 1603 318 c 257
 1433 318 l 257
 1420 135 1355 121 1189 121 c 256
 1042 121 969 186 969 328 c 258
 969 511 l 257
 1609 511 l 257
 1609 758 l 258
 1609 959 1473 1080 1197 1080 c 256
 1052 1080 949 1037 887 939 c 257
 850 1035 728 1080 590 1080 c 256
 312 1080 172 989 172 759 c 258
 172 731 l 257
 353 731 l 257
 353 758 l 258
 353 857 366 936 579 936 c 256
 771 936 782 850 782 773 c 256
 782 667 754 626 529 575 c 256
 206 502 131 423 131 283 c 256
 131 120 244 -22 469 -22 c 256
502 120 m 256
 392 120 312 165 312 284 c 256
 312 378 410 407 562 449 c 256
 718 492 781 544 781 564 c 258
 781 279 l 257
 751 181 615 120 502 120 c 256
969 633 m 257
 969 760 l 258
 969 891 1046 938 1196 938 c 256
 1341 938 1437 906 1437 778 c 258
 1437 633 l 257
 969 633 l 257
EndSplineSet
EndChar

StartChar: ampersand
Encoding: 7 38 186
Width: 1500
VWidth: 0
Flags: HW
PickledData: "(dp1
S'org.robofab.postScriptHintData'
p2
(dp3
s."
LayerCount: 2
Fore
SplineSet
720 -24 m 256
 973 -24 1111 28 1186 114 c 257
 1328 -19 l 257
 1432 94 l 257
 1257 261 l 257
 1274 332 1276 413 1276 500 c 258
 1276 778 l 257
 1101 778 l 257
 1101 455 l 258
 1101 439 1101 424 1100 410 c 257
 578 907 l 257
 487 1002 454 1048 454 1126 c 256
 454 1242 494 1331 704 1331 c 256
 892 1331 958 1302 958 1164 c 258
 958 1104 l 257
 1124 1104 l 257
 1124 1205 l 258
 1124 1441 976 1483 689 1483 c 256
 355 1483 264 1323 264 1142 c 256
 264 988 334 913 439 816 c 257
 245 759 176 640 176 439 c 256
 176 198 277 -24 720 -24 c 256
720 126 m 256
 464 126 378 239 378 445 c 256
 378 567 388 680 538 723 c 257
 1063 230 l 257
 1012 136 906 126 720 126 c 256
EndSplineSet
EndChar

StartChar: approxequal
Encoding: 483 8776 188
Width: 881
VWidth: 0
Flags: HW
PickledData: "(dp1
S'org.robofab.postScriptHintData'
p2
(dp3
s."
LayerCount: 2
Fore
SplineSet
601 635 m 256
 721 635 817 719 817 884 c 257
 720 884 l 257
 720 822 691 781 610 781 c 256
 539 781 417 898 280 898 c 256
 160 898 64 814 64 649 c 257
 161 649 l 257
 161 711 190 752 271 752 c 256
 342 752 464 635 601 635 c 256
601 941 m 256
 721 941 817 1025 817 1190 c 257
 720 1190 l 257
 720 1128 691 1087 610 1087 c 256
 539 1087 417 1204 280 1204 c 256
 160 1204 64 1120 64 955 c 257
 161 955 l 257
 161 1017 190 1058 271 1058 c 256
 342 1058 464 941 601 941 c 256
EndSplineSet
EndChar

StartChar: asciicircum
Encoding: 63 94 190
Width: 1257
VWidth: 0
Flags: HW
PickledData: "(dp1
S'org.robofab.postScriptHintData'
p2
(dp3
s."
LayerCount: 2
Fore
SplineSet
154 626 m 257
 348 626 l 257
 628 1161 l 257
 910 626 l 257
 1103 626 l 257
 735 1283 l 257
 513 1283 l 257
 154 626 l 257
EndSplineSet
EndChar

StartChar: asciitilde
Encoding: 95 126 191
Width: 881
VWidth: 0
Flags: HW
PickledData: "(dp1
S'org.robofab.postScriptHintData'
p2
(dp3
s."
LayerCount: 2
Fore
SplineSet
601 1173 m 256
 721 1173 817 1287 817 1452 c 257
 720 1452 l 257
 720 1390 691 1319 610 1319 c 256
 539 1319 417 1466 280 1466 c 256
 160 1466 64 1352 64 1187 c 257
 161 1187 l 257
 161 1249 190 1320 271 1320 c 256
 342 1320 464 1173 601 1173 c 256
EndSplineSet
EndChar

StartChar: asterisk
Encoding: 11 42 192
Width: 1024
VWidth: 0
Flags: HW
PickledData: "(dp1
S'org.robofab.postScriptHintData'
p2
(dp3
s."
LayerCount: 2
Fore
SplineSet
423 599 m 257
 601 599 l 257
 572 912 l 257
 819 722 l 257
 914 875 l 257
 634 1017 l 257
 925 1134 l 257
 844 1295 l 257
 571 1121 l 257
 601 1446 l 257
 423 1446 l 257
 451 1133 l 257
 204 1323 l 257
 109 1170 l 257
 389 1028 l 257
 99 911 l 257
 179 750 l 257
 452 924 l 257
 423 599 l 257
EndSplineSet
EndChar

StartChar: at
Encoding: 33 64 193
Width: 2048
VWidth: 0
Flags: HW
PickledData: "(dp1
S'org.robofab.postScriptHintData'
p2
(dp3
s."
LayerCount: 2
Fore
SplineSet
1104 -258 m 256
 1327 -258 1556 -207 1671 -158 c 257
 1621 -17 l 257
 1520 -61 1319 -111 1104 -111 c 256
 769 -111 552 13 552 298 c 258
 552 936 l 258
 552 1222 729 1331 1062 1331 c 256
 1461 1331 1497 1180 1497 955 c 257
 1496 955 1330 915 1197 883 c 256
 811 790 744 689 744 533 c 256
 744 351 870 195 1121 195 c 256
 1338 195 1468 296 1521 376 c 257
 1546 294 1575 212 1732 212 c 258
 1772 212 l 257
 1792 360 l 257
 1682 360 1676 392 1676 479 c 256
 1676 491 1676 503 1676 972 c 256
 1676 1163 1671 1483 1062 1483 c 256
 521 1483 362 1236 362 895 c 258
 362 332 l 258
 362 -3 566 -258 1104 -258 c 256
1153 343 m 256
 1028 343 946 404 946 539 c 256
 946 636 991 692 1213 749 c 256
 1365 788 1479 816 1497 825 c 257
 1497 522 l 257
 1464 412 1279 343 1153 343 c 256
EndSplineSet
EndChar

StartChar: b
Encoding: 67 98 195
Width: 1204
VWidth: 0
Flags: HW
PickledData: "(dp1
S'org.robofab.postScriptHintData'
p2
(dp3
s."
AnchorPoint: "top" 664 1060 basechar 0
LayerCount: 2
Fore
SplineSet
626 -22 m 256
 902 -22 1056 139 1056 352 c 258
 1056 736 l 258
 1056 940 921 1080 650 1080 c 256
 551 1080 442 1049 374 1010 c 257
 374 1506 l 257
 186 1506 l 257
 186 0 l 257
 325 0 l 257
 349 71 l 257
 405 36 500 -22 626 -22 c 256
598 126 m 256
 509 126 429 157 374 188 c 257
 374 870 l 257
 444 902 553 936 641 936 c 256
 779 936 868 877 868 750 c 258
 868 332 l 258
 868 202 746 126 598 126 c 256
EndSplineSet
EndChar

StartChar: backslash
Encoding: 61 92 196
Width: 768
VWidth: 0
Flags: HW
PickledData: "(dp1
S'org.robofab.postScriptHintData'
p2
(dp3
s."
LayerCount: 2
Fore
SplineSet
521 0 m 257
 704 0 l 257
 251 1506 l 257
 64 1506 l 257
 521 0 l 257
EndSplineSet
EndChar

StartChar: bar
Encoding: 93 124 197
Width: 690
VWidth: 0
Flags: HW
PickledData: "(dp1
S'org.robofab.postScriptHintData'
p2
(dp3
s."
LayerCount: 2
Fore
SplineSet
256 -167 m 257
 434 -167 l 257
 434 1555 l 257
 256 1555 l 257
 256 -167 l 257
EndSplineSet
EndChar

StartChar: braceleft
Encoding: 92 123 199
Width: 952
VWidth: 0
Flags: HW
PickledData: "(dp1
S'org.robofab.postScriptHintData'
p2
(dp3
s."
LayerCount: 2
Fore
SplineSet
867 -207 m 257
 867 -56 l 257
 585 -56 579 2 579 235 c 258
 579 297 l 258
 579 469 549 613 475 649 c 257
 549 686 579 830 579 1002 c 258
 579 1064 l 258
 579 1297 585 1355 867 1355 c 257
 867 1506 l 257
 392 1506 387 1341 387 1046 c 258
 387 1005 l 258
 387 747 338 724 234 724 c 0
 211 724 187 725 159 725 c 257
 159 574 l 257
 187 574 211 575 234 575 c 0
 338 575 387 552 387 294 c 258
 387 253 l 258
 387 -42 392 -207 867 -207 c 257
EndSplineSet
EndChar

StartChar: braceright
Encoding: 94 125 200
Width: 952
VWidth: 0
Flags: HW
PickledData: "(dp1
S'org.robofab.postScriptHintData'
p2
(dp3
s."
LayerCount: 2
Fore
SplineSet
128 -207 m 257
 603 -207 608 -42 608 253 c 258
 608 294 l 258
 608 552 657 575 761 575 c 0
 784 575 808 574 836 574 c 257
 836 725 l 257
 808 725 784 724 761 724 c 0
 657 724 608 747 608 1005 c 258
 608 1046 l 258
 608 1341 603 1506 128 1506 c 257
 128 1355 l 257
 410 1355 416 1297 416 1064 c 258
 416 1002 l 258
 416 830 446 686 520 649 c 257
 446 613 416 469 416 297 c 258
 416 235 l 258
 416 2 410 -56 128 -56 c 257
 128 -207 l 257
EndSplineSet
EndChar

StartChar: bracketleft
Encoding: 60 91 201
Width: 768
VWidth: 0
Flags: HW
PickledData: "(dp1
S'org.robofab.postScriptHintData'
p2
(dp3
s."
LayerCount: 2
Fore
SplineSet
256 -76 m 257
 634 -76 l 257
 634 58 l 257
 444 58 l 257
 444 1396 l 257
 634 1396 l 257
 634 1529 l 257
 256 1529 l 257
 256 -76 l 257
EndSplineSet
EndChar

StartChar: bracketright
Encoding: 62 93 202
Width: 768
VWidth: 0
Flags: HW
PickledData: "(dp1
S'org.robofab.postScriptHintData'
p2
(dp3
s."
LayerCount: 2
Fore
SplineSet
195 -76 m 257
 573 -76 l 257
 573 1529 l 257
 195 1529 l 257
 195 1395 l 257
 385 1395 l 257
 385 57 l 257
 195 57 l 257
 195 -76 l 257
EndSplineSet
EndChar

StartChar: breve
Encoding: 406 728 203
Width: 512
VWidth: 0
Flags: HW
PickledData: "(dp1
S'org.robofab.postScriptHintData'
p2
(dp3
s."
AnchorPoint: "top" 267 1060 mark 0
LayerCount: 2
Fore
SplineSet
256 1294 m 256
 395 1294 482 1391 482 1506 c 257
 356 1506 l 257
 356 1446 306 1416 256 1416 c 256
 206 1416 156 1446 156 1506 c 257
 30 1506 l 257
 30 1391 117 1294 256 1294 c 256
EndSplineSet
EndChar

StartChar: brokenbar
Encoding: 103 166 204
Width: 674
VWidth: 0
Flags: HW
PickledData: "(dp1
S'org.robofab.postScriptHintData'
p2
(dp3
s."
LayerCount: 2
Fore
SplineSet
254 -167 m 257
 432 -167 l 257
 432 513 l 257
 254 513 l 257
 254 -167 l 257
254 848 m 257
 432 848 l 257
 432 1555 l 257
 254 1555 l 257
 254 848 l 257
EndSplineSet
EndChar

StartChar: bullet
Encoding: 460 8226 205
Width: 975
VWidth: 0
Flags: HW
PickledData: "(dp1
S'org.robofab.postScriptHintData'
p2
(dp3
s."
LayerCount: 2
Fore
SplineSet
486 298 m 256
 713 298 795 405 795 599 c 256
 795 795 714 901 487 901 c 256
 262 901 180 795 180 599 c 256
 180 404 260 298 486 298 c 256
EndSplineSet
EndChar

StartChar: bulletoperator
Encoding: 479 8729 206
Width: 600
VWidth: 0
Flags: HWO
PickledData: "(dp1
S'org.robofab.postScriptHintData'
p2
(dp3
s."
LayerCount: 2
Fore
SplineSet
181 602 m 257
 374 602 l 257
 374 810 l 257
 181 810 l 257
 181 602 l 257
EndSplineSet
EndChar

StartChar: c
Encoding: 68 99 207
Width: 1106
VWidth: 0
Flags: HW
PickledData: "(dp1
S'org.robofab.postScriptHintData'
p2
(dp3
s."
AnchorPoint: "top" 594 1060 basechar 0
AnchorPoint: "bot" 559 0 basechar 0
LayerCount: 2
Fore
SplineSet
579 -22 m 256
 867 -22 969 66 990 310 c 257
 816 310 l 257
 802 150 765 122 579 122 c 256
 427 122 336 176 336 328 c 258
 336 743 l 258
 336 884 417 936 579 936 c 256
 755 936 812 901 813 707 c 257
 992 724 l 257
 992 1009 828 1080 574 1080 c 256
 311 1080 148 948 148 748 c 258
 148 344 l 258
 148 148 263 -22 579 -22 c 256
EndSplineSet
EndChar

StartChar: caron
Encoding: 404 711 209
Width: 512
VWidth: 0
Flags: HW
PickledData: "(dp1
S'org.robofab.postScriptHintData'
p2
(dp3
s."
AnchorPoint: "top" 256 1060 mark 0
LayerCount: 2
Fore
SplineSet
336 1287 m 257
 542 1553 l 257
 366 1553 l 257
 262 1409 l 257
 150 1553 l 257
 -30 1553 l 257
 186 1287 l 257
 336 1287 l 257
EndSplineSet
EndChar

StartChar: caron.alt
Encoding: 495 -1 210
Width: 600
VWidth: 0
Flags: HW
PickledData: "(dp1
S'org.robofab.postScriptHintData'
p2
(dp3
s."
AnchorPoint: "caron.alt" 312 1060 mark 0
LayerCount: 2
Fore
SplineSet
703 1222 m 257
 761 1276 875 1419 875 1610 c 258
 875 1793 l 257
 618 1793 l 257
 618 1560 l 257
 759 1560 l 257
 759 1428 669 1321 622 1266 c 257
 703 1222 l 257
EndSplineSet
EndChar

StartChar: cedilla
Encoding: 121 184 215
Width: 512
VWidth: 0
Flags: HW
PickledData: "(dp1
S'org.robofab.postScriptHintData'
p2
(dp3
s."
AnchorPoint: "bot" 205 0 mark 0
LayerCount: 2
Fore
SplineSet
213 -486 m 256
 378 -486 460 -397 460 -303 c 256
 460 -214 386 -120 239 -94 c 257
 233 0 l 257
 171 0 l 257
 171 -158 l 257
 271 -161 331 -229 331 -290 c 256
 331 -342 289 -389 191 -389 c 256
 170 -389 146 -387 120 -382 c 257
 120 -478 l 257
 154 -484 185 -486 213 -486 c 256
EndSplineSet
EndChar

StartChar: cent
Encoding: 99 162 216
Width: 1110
VWidth: 0
Flags: HW
PickledData: "(dp1
S'org.robofab.postScriptHintData'
p2
(dp3
s."
LayerCount: 2
Fore
SplineSet
540 1013 m 257
 643 1013 l 257
 643 1277 l 257
 540 1277 l 257
 540 1013 l 257
540 -205 m 257
 643 -205 l 257
 643 59 l 257
 540 59 l 257
 540 -205 l 257
EndSplineSet
Refer: 207 99 N 1 0 0 1 0 0 2
EndChar

StartChar: circumflex
Encoding: 403 710 217
Width: 512
VWidth: 0
Flags: HW
PickledData: "(dp1
S'org.robofab.postScriptHintData'
p2
(dp3
s."
AnchorPoint: "top" 256 1060 mark 0
LayerCount: 2
Fore
SplineSet
-30 1287 m 257
 150 1287 l 257
 262 1431 l 257
 366 1287 l 257
 542 1287 l 257
 336 1553 l 257
 186 1553 l 257
 -30 1287 l 257
EndSplineSet
EndChar

StartChar: comma
Encoding: 13 44 219
Width: 641
VWidth: 0
Flags: HW
PickledData: "(dp1
S'org.robofab.postScriptHintData'
p2
(dp3
s."
LayerCount: 2
Fore
SplineSet
277 -338 m 257
 335 -284 449 -141 449 50 c 258
 449 233 l 257
 192 233 l 257
 192 0 l 257
 333 0 l 257
 333 -132 243 -239 196 -294 c 257
 277 -338 l 257
EndSplineSet
EndChar

StartChar: copyright
Encoding: 106 169 220
Width: 1784
VWidth: 0
Flags: HW
PickledData: "(dp1
S'org.robofab.postScriptHintData'
p2
(dp3
s."
LayerCount: 2
Fore
SplineSet
903 287 m 256
 1179 287 1228 422 1228 598 c 258
 1228 632 l 257
 1112 632 l 257
 1112 571 l 258
 1112 419 1056 376 903 376 c 256
 751 376 671 419 671 571 c 258
 671 890 l 258
 671 1042 751 1091 902 1091 c 256
 1054 1091 1112 1042 1112 890 c 258
 1112 826 l 257
 1228 836 l 257
 1228 861 l 258
 1228 1043 1179 1182 902 1182 c 256
 614 1182 551 1050 551 868 c 258
 551 590 l 258
 551 411 616 287 903 287 c 256
894 82 m 256
 530 82 265 357 265 722 c 256
 265 1086 530 1361 894 1361 c 256
 1260 1361 1522 1086 1522 722 c 256
 1522 357 1260 82 894 82 c 256
892 -14 m 256
 1308 -14 1628 303 1628 722 c 256
 1628 1139 1308 1456 892 1456 c 256
 479 1456 156 1139 156 722 c 256
 156 303 479 -14 892 -14 c 256
EndSplineSet
EndChar

StartChar: currency
Encoding: 101 164 221
Width: 1149
VWidth: 0
Flags: HW
PickledData: "(dp1
S'org.robofab.postScriptHintData'
p2
(dp3
s."
LayerCount: 2
Fore
SplineSet
564 360 m 256
 666 360 759 406 817 486 c 257
 981 376 l 257
 1033 457 l 257
 862 571 l 257
 876 608 883 648 883 689 c 256
 883 751 866 809 839 860 c 257
 1023 993 l 257
 973 1075 l 257
 780 935 l 257
 723 990 647 1018 564 1018 c 256
 482 1018 407 991 350 937 c 257
 170 1061 l 257
 116 979 l 257
 291 862 l 257
 261 811 245 752 245 689 c 256
 245 640 255 592 274 549 c 257
 126 443 l 257
 177 360 l 257
 324 468 l 257
 384 398 469 360 564 360 c 256
565 444 m 256
 436 444 340 555 340 690 c 256
 340 826 436 936 565 936 c 256
 694 936 790 826 790 690 c 256
 790 555 694 444 565 444 c 256
EndSplineSet
EndChar

StartChar: d
Encoding: 69 100 222
Width: 1200
VWidth: 0
Flags: HW
PickledData: "(dp1
S'org.robofab.postScriptHintData'
p2
(dp3
s."
AnchorPoint: "caron.alt" 826 1060 basechar 0
AnchorPoint: "top" 584 1060 basechar 0
AnchorPoint: "mid" 917 1275 basechar 0
LayerCount: 2
Fore
SplineSet
568 -22 m 256
 677 -22 793 22 855 70 c 257
 886 0 l 257
 1014 0 l 257
 1014 1506 l 257
 826 1506 l 257
 826 1040 l 257
 760 1064 658 1080 591 1080 c 256
 283 1080 148 948 148 735 c 258
 148 335 l 258
 148 131 263 -22 568 -22 c 256
580 126 m 256
 442 126 336 189 336 321 c 258
 336 756 l 258
 336 886 445 936 593 936 c 256
 681 936 770 919 826 892 c 257
 826 189 l 257
 783 163 687 126 580 126 c 256
EndSplineSet
EndChar

StartChar: dagger
Encoding: 458 8224 223
Width: 890
VWidth: 0
Flags: HW
PickledData: "(dp1
S'org.robofab.postScriptHintData'
p2
(dp3
s."
LayerCount: 2
Fore
SplineSet
348 0 m 257
 536 0 l 257
 536 931 l 257
 802 931 l 257
 802 1060 l 257
 536 1060 l 257
 536 1446 l 257
 348 1446 l 257
 348 1060 l 257
 88 1060 l 257
 88 931 l 257
 348 931 l 257
 348 0 l 257
EndSplineSet
EndChar

StartChar: daggerdbl
Encoding: 459 8225 224
Width: 938
VWidth: 0
Flags: HW
PickledData: "(dp1
S'org.robofab.postScriptHintData'
p2
(dp3
s."
LayerCount: 2
Fore
SplineSet
372 0 m 257
 560 0 l 257
 560 409 l 257
 826 409 l 257
 826 538 l 257
 560 538 l 257
 560 931 l 257
 826 931 l 257
 826 1060 l 257
 560 1060 l 257
 560 1446 l 257
 372 1446 l 257
 372 1060 l 257
 112 1060 l 257
 112 931 l 257
 372 931 l 257
 372 538 l 257
 112 538 l 257
 112 409 l 257
 372 409 l 257
 372 0 l 257
EndSplineSet
EndChar

StartChar: degree
Encoding: 113 176 228
Width: 1036
VWidth: 0
Flags: HW
PickledData: "(dp1
S'org.robofab.postScriptHintData'
p2
(dp3
s."
LayerCount: 2
Fore
SplineSet
519 885 m 256
 388 885 291 992 291 1123 c 256
 291 1254 388 1361 519 1361 c 256
 650 1361 747 1254 747 1123 c 256
 747 992 650 885 519 885 c 256
518 798 m 256
 696 798 842 943 842 1122 c 256
 842 1300 696 1446 518 1446 c 256
 340 1446 194 1300 194 1122 c 256
 194 943 340 798 518 798 c 256
EndSplineSet
EndChar

StartChar: dieresis
Encoding: 105 168 229
Width: 1025
VWidth: 0
Flags: HW
PickledData: "(dp1
S'org.robofab.postScriptHintData'
p2
(dp3
s."
AnchorPoint: "top" 513 1060 mark 0
LayerCount: 2
Fore
SplineSet
158 1343 m 257
 364 1343 l 257
 364 1524 l 257
 158 1524 l 257
 158 1343 l 257
661 1343 m 257
 867 1343 l 257
 867 1524 l 257
 661 1524 l 257
 661 1343 l 257
EndSplineSet
EndChar

StartChar: divide
Encoding: 184 247 230
Width: 1025
VWidth: 0
Flags: HW
PickledData: "(dp1
S'org.robofab.postScriptHintData'
p2
(dp3
s."
LayerCount: 2
Fore
SplineSet
413 90 m 257
 618 90 l 257
 618 299 l 257
 413 299 l 257
 413 90 l 257
100 472 m 257
 925 472 l 257
 925 609 l 257
 100 609 l 257
 100 472 l 257
413 787 m 257
 618 787 l 257
 618 996 l 257
 413 996 l 257
 413 787 l 257
EndSplineSet
EndChar

StartChar: dollar
Encoding: 5 36 231
Width: 1303
VWidth: 0
Flags: HW
PickledData: "(dp1
S'org.robofab.postScriptHintData'
p2
(dp3
s."
LayerCount: 2
Fore
SplineSet
620 -372 m 257
 730 -372 l 257
 730 1758 l 257
 620 1758 l 257
 620 -372 l 257
EndSplineSet
Refer: 124 83 N 1 0 0 1 0 0 2
EndChar

StartChar: dotaccent
Encoding: 407 729 232
Width: 512
VWidth: 0
Flags: HW
PickledData: "(dp1
S'org.robofab.postScriptHintData'
p2
(dp3
s."
AnchorPoint: "top" 256 1060 mark 0
LayerCount: 2
Fore
SplineSet
149 1327 m 257
 342 1327 l 257
 342 1535 l 257
 149 1535 l 257
 149 1327 l 257
EndSplineSet
EndChar

StartChar: dotlessi
Encoding: 242 305 233
Width: 556
VWidth: 0
Flags: HW
PickledData: "(dp1
S'org.robofab.postScriptHintData'
p2
(dp3
s."
AnchorPoint: "top" 295 1060 basechar 0
AnchorPoint: "ogonek" 304 0 basechar 0
LayerCount: 2
Fore
SplineSet
192 0 m 257
 380 0 l 257
 380 1060 l 257
 192 1060 l 257
 192 0 l 257
EndSplineSet
EndChar

StartChar: dotlessj
Encoding: 400 567 234
Width: 595
VWidth: 0
Flags: HW
PickledData: "(dp1
S'org.robofab.postScriptHintData'
p2
(dp3
s."
AnchorPoint: "top" 331 1060 basechar 0
LayerCount: 2
Fore
SplineSet
27 -353 m 257
 93 -353 l 258
 299 -353 415 -305 415 7 c 258
 415 1060 l 257
 227 1060 l 257
 227 -4 l 258
 227 -174 170 -197 37 -197 c 258
 8 -197 l 257
 27 -353 l 257
EndSplineSet
EndChar

StartChar: e
Encoding: 70 101 237
Width: 1138
VWidth: 0
Flags: HW
PickledData: "(dp1
S'org.robofab.postScriptHintData'
p2
(dp3
s."
AnchorPoint: "top" 584 1060 basechar 0
AnchorPoint: "ogonek" 697 0 basechar 0
AnchorPoint: "bot" 589 0 basechar 0
LayerCount: 2
Fore
SplineSet
589 -22 m 256
 883 -22 978 32 1004 282 c 257
 838 282 l 257
 822 122 766 122 589 122 c 256
 389 122 336 185 336 357 c 258
 336 506 l 257
 1006 506 l 257
 1006 758 l 258
 1006 959 873 1080 582 1080 c 256
 278 1080 148 943 148 743 c 258
 148 374 l 258
 148 110 273 -22 589 -22 c 256
336 633 m 257
 336 760 l 258
 336 891 432 936 582 936 c 256
 727 936 824 906 824 778 c 258
 824 633 l 257
 336 633 l 257
EndSplineSet
EndChar

StartChar: eight
Encoding: 25 56 246
Width: 1250
VWidth: 0
Flags: HW
PickledData: "(dp1
S'org.robofab.postScriptHintData'
p2
(dp3
s."
LayerCount: 2
Fore
SplineSet
621 -22 m 256
 921 -22 1118 103 1118 367 c 256
 1118 580 969 703 811 773 c 257
 962 842 1090 922 1090 1108 c 256
 1090 1375 878 1468 626 1468 c 256
 371 1468 160 1375 160 1108 c 256
 160 922 287 842 438 773 c 257
 280 703 132 580 132 367 c 256
 132 103 327 -22 621 -22 c 256
626 140 m 256
 435 140 323 199 323 372 c 256
 323 529 462 610 625 689 c 257
 787 610 927 529 927 372 c 256
 927 199 814 140 626 140 c 256
625 846 m 257
 479 916 355 977 355 1107 c 256
 355 1230 425 1306 626 1306 c 256
 825 1306 895 1230 895 1107 c 256
 895 977 771 917 625 846 c 257
EndSplineSet
EndChar

StartChar: emdash
Encoding: 450 8212 250
Width: 1101
VWidth: 0
Flags: HW
PickledData: "(dp1
S'org.robofab.postScriptHintData'
p2
(dp3
s."
LayerCount: 2
Fore
SplineSet
2 402 m 257
 1098 402 l 257
 1098 548 l 257
 2 548 l 257
 2 402 l 257
EndSplineSet
EndChar

StartChar: emptyset
Encoding: 473 8709 251
Width: 1552
VWidth: 0
Flags: HW
PickledData: "(dp1
S'org.robofab.postScriptHintData'
p2
(dp3
s."
LayerCount: 2
Fore
SplineSet
778 167 m 256
 485 167 271 388 271 682 c 256
 271 974 485 1196 778 1196 c 256
 1072 1196 1283 974 1283 682 c 256
 1283 388 1072 167 778 167 c 256
776 66 m 256
 1124 66 1392 331 1392 682 c 256
 1392 1031 1124 1296 776 1296 c 256
 430 1296 160 1031 160 682 c 256
 160 331 430 66 776 66 c 256
207 54 m 257
 274 -2 l 257
 1351 1281 l 257
 1284 1337 l 257
 207 54 l 257
EndSplineSet
EndChar

StartChar: endash
Encoding: 449 8211 252
Width: 539
VWidth: 0
Flags: HW
PickledData: "(dp1
S'org.robofab.postScriptHintData'
p2
(dp3
s."
LayerCount: 2
Fore
SplineSet
2 606 m 257
 535 606 l 257
 535 732 l 257
 2 732 l 257
 2 606 l 257
EndSplineSet
EndChar

StartChar: eng
Encoding: 268 331 253
Width: 1226
VWidth: 0
Flags: HW
PickledData: "(dp1
S'org.robofab.postScriptHintData'
p2
(dp3
s."
LayerCount: 2
Fore
SplineSet
641 -316 m 257
 987 -316 1050 -162 1050 219 c 258
 1050 770 l 258
 1050 938 949 1080 688 1080 c 256
 534 1080 436 1029 374 957 c 257
 374 1060 l 257
 186 1060 l 257
 186 0 l 257
 374 0 l 257
 374 755 l 258
 374 857 456 936 640 936 c 256
 771 936 862 886 862 781 c 258
 862 212 l 258
 862 -100 861 -175 613 -175 c 257
 641 -316 l 257
EndSplineSet
EndChar

StartChar: equal
Encoding: 30 61 255
Width: 1250
VWidth: 0
Flags: HW
PickledData: "(dp1
S'org.robofab.postScriptHintData'
p2
(dp3
s."
LayerCount: 2
Fore
SplineSet
224 467 m 257
 1026 467 l 257
 1026 615 l 257
 224 615 l 257
 224 467 l 257
224 805 m 257
 1026 805 l 257
 1026 953 l 257
 224 953 l 257
 224 805 l 257
EndSplineSet
EndChar

StartChar: estimated
Encoding: 471 8494 256
Width: 1199
VWidth: 0
Flags: HW
PickledData: "(dp1
S'org.robofab.postScriptHintData'
p2
(dp3
s."
LayerCount: 2
Fore
SplineSet
638 1210 m 256
 757 1210 873 1162 939 1065 c 257
 939 790 l 257
 325 790 l 257
 325 1067 l 257
 397 1161 519 1210 638 1210 c 256
95 730 m 256
 95 413 282 178 662 178 c 256
 868 178 1002 267 1101 385 c 257
 1050 436 l 257
 943 321 797 264 657 264 c 256
 529 264 407 312 325 406 c 257
 325 710 l 257
 1109 710 l 257
 1109 1049 955 1280 637 1280 c 256
 317 1280 95 1041 95 730 c 256
EndSplineSet
EndChar

StartChar: eth
Encoding: 177 240 257
Width: 1158
VWidth: 0
Flags: HW
PickledData: "(dp1
S'org.robofab.postScriptHintData'
p2
(dp3
s."
LayerCount: 2
Fore
SplineSet
587 -20 m 256
 970 -20 1010 170 1010 365 c 258
 1010 736 l 258
 1010 1058 924 1312 693 1427 c 257
 792 1565 l 257
 697 1617 l 257
 596 1470 l 257
 526 1487 460 1492 403 1492 c 0
 330 1492 273 1483 238 1477 c 257
 210 1349 l 257
 244 1352 288 1356 339 1356 c 0
 390 1356 447 1352 506 1341 c 257
 376 1152 l 257
 471 1100 l 257
 612 1304 l 257
 734 1238 822 1112 822 911 c 257
 795 934 693 975 577 975 c 256
 314 975 150 846 150 646 c 258
 150 314 l 258
 150 118 271 -20 587 -20 c 256
587 121 m 257
 440 121 337 166 337 308 c 258
 337 652 l 258
 337 783 441 833 587 833 c 256
 647 833 778 813 825 783 c 257
 825 359 l 258
 825 349 825 339 825 329 c 0
 825 213 802 121 587 121 c 257
EndSplineSet
EndChar

StartChar: exclam
Encoding: 2 33 259
Width: 768
VWidth: 0
Flags: HW
PickledData: "(dp1
S'org.robofab.postScriptHintData'
p2
(dp3
s."
LayerCount: 2
Fore
SplineSet
280 0 m 257
 484 0 l 257
 484 206 l 257
 280 206 l 257
 280 0 l 257
353 371 m 257
 409 371 l 257
 409 371 488 1060 488 1446 c 257
 286 1446 l 257
 286 1060 353 371 353 371 c 257
EndSplineSet
EndChar

StartChar: f
Encoding: 71 102 261
Width: 782
VWidth: 0
Flags: HW
PickledData: "(dp1
S'org.robofab.postScriptHintData'
p2
(dp3
s."
AnchorPoint: "top" 388 1446 basechar 0
LayerCount: 2
Fore
SplineSet
279 0 m 257
 467 0 l 257
 467 918 l 257
 724 918 l 257
 724 1060 l 257
 467 1060 l 257
 467 1239 l 258
 467 1315 505 1372 620 1372 c 258
 736 1372 l 257
 724 1505 l 257
 605 1505 l 258
 387 1505 279 1419 279 1221 c 258
 279 1060 l 257
 102 1060 l 257
 102 918 l 257
 279 918 l 257
 279 0 l 257
EndSplineSet
EndChar

StartChar: five
Encoding: 22 53 268
Width: 1250
VWidth: 0
Flags: HW
PickledData: "(dp1
S'org.robofab.postScriptHintData'
p2
(dp3
s."
LayerCount: 2
Fore
SplineSet
632 -22 m 256
 924 -22 1117 169 1117 449 c 256
 1117 734 968 911 669 911 c 256
 568 911 469 877 406 819 c 257
 448 1281 l 257
 1024 1281 l 257
 1024 1446 l 257
 287 1446 l 257
 236 712 l 257
 382 652 l 257
 485 727 546 762 645 762 c 256
 845 762 928 633 928 439 c 256
 928 246 813 140 624 140 c 256
 420 140 330 191 226 260 c 257
 173 107 l 257
 277 46 408 -22 632 -22 c 256
EndSplineSet
EndChar

StartChar: florin
Encoding: 322 402 271
Width: 890
VWidth: 0
Flags: HW
PickledData: "(dp1
S'org.robofab.postScriptHintData'
p2
(dp3
s."
LayerCount: 2
Fore
SplineSet
251 -190 m 256
 452 -190 521 -98 521 91 c 258
 521 727 l 257
 650 727 l 257
 650 858 l 257
 521 858 l 257
 521 1177 l 258
 521 1263 542 1335 680 1335 c 256
 690 1335 699 1335 710 1334 c 257
 710 1458 l 257
 672 1462 637 1464 606 1464 c 256
 398 1464 333 1372 333 1155 c 258
 333 858 l 257
 216 858 l 257
 216 727 l 257
 333 727 l 257
 333 63 l 258
 333 -18 300 -61 189 -61 c 256
 174 -61 158 -61 141 -59 c 257
 141 -183 l 257
 181 -188 218 -190 251 -190 c 256
EndSplineSet
EndChar

StartChar: foundryicon
Encoding: 497 -1 272
Width: 1347
VWidth: 0
Flags: HW
PickledData: "(dp1
S'org.robofab.postScriptHintData'
p2
(dp3
s."
LayerCount: 2
Fore
SplineSet
485 405 m 257
 485 672 l 257
 591 672 l 257
 761 523 l 257
 761 672 l 257
 867 672 l 257
 867 405 l 257
 761 405 l 257
 591 552 l 257
 591 405 l 257
 485 405 l 257
280 2 m 257
 669 278 l 257
 1066 2 l 257
 922 461 l 257
 1313 755 l 257
 828 755 l 257
 669 1215 l 257
 519 755 l 257
 34 755 l 257
 423 461 l 257
 280 2 l 257
EndSplineSet
EndChar

StartChar: four
Encoding: 21 52 273
Width: 1250
VWidth: 0
Flags: HW
PickledData: "(dp1
S'org.robofab.postScriptHintData'
p2
(dp3
s."
LayerCount: 2
Fore
SplineSet
783 0 m 257
 950 0 l 257
 950 351 l 257
 1162 351 l 257
 1162 506 l 257
 950 506 l 257
 950 837 l 257
 783 837 l 257
 783 506 l 257
 367 506 l 257
 881 1446 l 257
 672 1446 l 257
 143 508 l 257
 143 351 l 257
 783 351 l 257
 783 0 l 257
EndSplineSet
Substitution2: "'sups' Superscript lookup 11 subtable" foursuperior
EndChar

StartChar: foursuperior
Encoding: 466 8308 274
Width: 1050
VWidth: 0
Flags: HW
PickledData: "(dp1
S'org.robofab.postScriptHintData'
p2
(dp3
s."
LayerCount: 2
Fore
SplineSet
593 694 m 257
 712 694 l 257
 712 877 l 257
 840 877 l 257
 840 979 l 257
 712 979 l 257
 712 1186 l 257
 593 1186 l 257
 593 979 l 257
 351 979 l 257
 689 1545 l 257
 548 1545 l 257
 189 972 l 257
 189 877 l 257
 593 877 l 257
 593 694 l 257
EndSplineSet
EndChar

StartChar: fraction
Encoding: 465 8260 275
Width: 768
VWidth: 0
Flags: HW
PickledData: "(dp1
S'org.robofab.postScriptHintData'
p2
(dp3
s."
LayerCount: 2
Fore
SplineSet
16 0 m 257
 203 0 l 257
 752 1506 l 257
 569 1506 l 257
 16 0 l 257
EndSplineSet
EndChar

StartChar: g
Encoding: 72 103 276
Width: 1182
VWidth: 0
Flags: HW
PickledData: "(dp1
S'org.robofab.postScriptHintData'
p2
(dp3
s."
AnchorPoint: "top" 565 1060 basechar 0
LayerCount: 2
Fore
SplineSet
603 -408 m 256
 883 -408 1010 -223 1010 25 c 258
 1010 1060 l 257
 822 1060 l 257
 822 975 l 257
 792 1025 658 1080 550 1080 c 256
 274 1080 148 941 148 728 c 258
 148 379 l 258
 148 159 279 40 550 40 c 256
 623 40 762 60 822 116 c 257
 822 -31 l 258
 822 -188 749 -265 564 -265 c 256
 464 -265 353 -248 295 -227 c 257
 253 -368 l 257
 331 -397 460 -408 603 -408 c 256
579 184 m 256
 441 184 336 223 336 350 c 258
 336 748 l 258
 336 878 430 936 578 936 c 256
 745 936 822 882 822 790 c 258
 822 264 l 257
 792 240 719 184 579 184 c 256
EndSplineSet
EndChar

StartChar: germandbls
Encoding: 160 223 283
Width: 1281
VWidth: 0
Flags: HW
PickledData: "(dp1
S'org.robofab.postScriptHintData'
p2
(dp3
s."
LayerCount: 2
Fore
SplineSet
190 0 m 257
 378 0 l 257
 378 1131 l 258
 378 1305 497 1332 643 1332 c 256
 781 1332 869 1296 869 1119 c 256
 869 989 818 912 600 912 c 257
 600 770 l 257
 838 770 991 743 991 485 c 256
 991 182 786 168 518 148 c 257
 536 0 l 257
 942 0 1166 119 1166 488 c 256
 1166 786 1019 829 902 878 c 257
 1010 908 1057 979 1057 1135 c 256
 1057 1347 933 1483 652 1483 c 256
 396 1483 190 1401 190 1103 c 258
 190 0 l 257
EndSplineSet
EndChar

StartChar: grave
Encoding: 65 96 284
Width: 616
VWidth: 0
Flags: HW
PickledData: "(dp1
S'org.robofab.postScriptHintData'
p2
(dp3
s."
AnchorPoint: "top" 339 1060 mark 0
LayerCount: 2
Fore
SplineSet
25 1585 m 257
 260 1204 l 257
 388 1204 l 257
 250 1585 l 257
 25 1585 l 257
EndSplineSet
EndChar

StartChar: greater
Encoding: 31 62 285
Width: 1250
VWidth: 0
Flags: HW
PickledData: "(dp1
S'org.robofab.postScriptHintData'
p2
(dp3
s."
LayerCount: 2
Fore
SplineSet
208 0 m 257
 1094 472 l 257
 1094 673 l 257
 208 1144 l 257
 208 935 l 257
 939 571 l 257
 208 203 l 257
 208 0 l 257
EndSplineSet
EndChar

StartChar: guillemotleft
Encoding: 108 171 287
Width: 1054
VWidth: 0
Flags: HW
PickledData: "(dp1
S'org.robofab.postScriptHintData'
p2
(dp3
s."
LayerCount: 2
Fore
SplineSet
376 80 m 257
 516 150 l 257
 309 530 l 257
 516 910 l 257
 369 980 l 257
 96 530 l 257
 376 80 l 257
790 80 m 257
 928 150 l 257
 723 530 l 257
 928 910 l 257
 783 980 l 257
 510 530 l 257
 790 80 l 257
EndSplineSet
EndChar

StartChar: guillemotright
Encoding: 124 187 288
Width: 1054
VWidth: 0
Flags: HW
PickledData: "(dp1
S'org.robofab.postScriptHintData'
p2
(dp3
s."
LayerCount: 2
Fore
SplineSet
271 80 m 257
 544 530 l 257
 264 980 l 257
 126 910 l 257
 331 530 l 257
 126 150 l 257
 271 80 l 257
685 80 m 257
 958 530 l 257
 678 980 l 257
 538 910 l 257
 745 530 l 257
 538 150 l 257
 685 80 l 257
EndSplineSet
EndChar

StartChar: guilsinglleft
Encoding: 463 8249 289
Width: 768
VWidth: 0
Flags: HW
PickledData: "(dp1
S'org.robofab.postScriptHintData'
p2
(dp3
s."
LayerCount: 2
Fore
SplineSet
454 80 m 257
 594 150 l 257
 387 530 l 257
 594 910 l 257
 447 980 l 257
 174 530 l 257
 454 80 l 257
EndSplineSet
EndChar

StartChar: guilsinglright
Encoding: 464 8250 290
Width: 768
VWidth: 0
Flags: HW
PickledData: "(dp1
S'org.robofab.postScriptHintData'
p2
(dp3
s."
LayerCount: 2
Fore
SplineSet
327 80 m 257
 600 530 l 257
 320 980 l 257
 180 910 l 257
 387 530 l 257
 180 150 l 257
 327 80 l 257
EndSplineSet
EndChar

StartChar: h
Encoding: 73 104 291
Width: 1224
VWidth: 0
Flags: HW
PickledData: "(dp1
S'org.robofab.postScriptHintData'
p2
(dp3
s."
AnchorPoint: "top" 687 1060 basechar 0
AnchorPoint: "mid" 285 1276 basechar 0
LayerCount: 2
Fore
SplineSet
186 0 m 257
 374 0 l 257
 374 758 l 258
 374 860 458 936 642 936 c 256
 773 936 862 888 862 783 c 258
 862 0 l 257
 1050 0 l 257
 1050 773 l 258
 1050 941 951 1080 690 1080 c 256
 536 1080 436 1032 374 960 c 257
 374 1505 l 257
 186 1505 l 257
 186 0 l 257
EndSplineSet
EndChar

StartChar: hbar
Encoding: 232 295 292
Width: 1224
VWidth: 0
Flags: HW
PickledData: "(dp1
S'org.robofab.postScriptHintData'
p2
(dp3
s."
LayerCount: 2
Fore
SplineSet
29 1249 m 257
 844 1249 l 257
 844 1373 l 257
 29 1373 l 257
 29 1249 l 257
EndSplineSet
Refer: 291 104 N 1 0 0 1 0 0 2
EndChar

StartChar: hungarumlaut
Encoding: 411 733 294
Width: 1024
VWidth: 0
Flags: HW
PickledData: "(dp1
S'org.robofab.postScriptHintData'
p2
(dp3
s."
AnchorPoint: "top" 422 1060 mark 0
LayerCount: 2
Fore
SplineSet
164 1293 m 257
 292 1293 l 257
 527 1674 l 257
 302 1674 l 257
 164 1293 l 257
574 1293 m 257
 702 1293 l 257
 937 1674 l 257
 712 1674 l 257
 574 1293 l 257
EndSplineSet
EndChar

StartChar: hyphen
Encoding: 14 45 295
AltUni2: 002015.ffffffff.0
Width: 1024
VWidth: 0
Flags: HW
PickledData: "(dp1
S'org.robofab.postScriptHintData'
p2
(dp3
s."
AnchorPoint: "mid" 508 567 mark 0
LayerCount: 2
Fore
SplineSet
172 499 m 257
 832 499 l 257
 832 642 l 257
 172 642 l 257
 172 499 l 257
EndSplineSet
EndChar

StartChar: infinity
Encoding: 481 8734 308
Width: 1650
VWidth: 0
Flags: HW
PickledData: "(dp1
S'org.robofab.postScriptHintData'
p2
(dp3
s."
LayerCount: 2
Fore
SplineSet
369 485 m 256
 547 485 818 736 818 736 c 257
 818 736 1103 485 1281 485 c 256
 1484 485 1586 652 1586 820 c 256
 1586 989 1483 1158 1281 1158 c 256
 1103 1158 818 933 818 933 c 257
 818 933 547 1158 369 1158 c 256
 166 1158 64 990 64 822 c 256
 64 654 166 485 369 485 c 256
376 616 m 256
 272 616 220 718 220 821 c 256
 220 924 272 1027 376 1027 c 256
 450 1027 717 829 717 829 c 257
 717 829 450 616 376 616 c 256
1261 616 m 256
 1187 616 919 826 919 826 c 257
 919 826 1187 1027 1261 1027 c 256
 1365 1027 1417 924 1417 821 c 256
 1417 718 1365 616 1261 616 c 256
EndSplineSet
EndChar

StartChar: integral
Encoding: 482 8747 309
Width: 890
VWidth: 0
Flags: HW
PickledData: "(dp1
S'org.robofab.postScriptHintData'
p2
(dp3
s."
LayerCount: 2
Fore
SplineSet
251 -380 m 256
 452 -380 521 -288 521 -99 c 258
 521 1181 l 258
 521 1267 542 1339 680 1339 c 256
 690 1339 699 1339 710 1338 c 257
 710 1462 l 257
 672 1466 637 1468 606 1468 c 256
 398 1468 333 1376 333 1159 c 258
 333 -127 l 258
 333 -208 300 -251 189 -251 c 256
 174 -251 158 -251 141 -249 c 257
 141 -373 l 257
 181 -378 218 -380 251 -380 c 256
EndSplineSet
EndChar

StartChar: k
Encoding: 76 107 315
Width: 1145
VWidth: 0
Flags: HW
PickledData: "(dp1
S'org.robofab.postScriptHintData'
p2
(dp3
s."
AnchorPoint: "top" 614 1060 basechar 0
AnchorPoint: "bot" 626 0 basechar 0
LayerCount: 2
Fore
SplineSet
186 0 m 257
 374 0 l 257
 374 334 l 257
 533 492 l 257
 913 0 l 257
 1130 0 l 257
 656 594 l 257
 1087 1060 l 257
 881 1060 l 257
 374 524 l 257
 374 1506 l 257
 186 1506 l 257
 186 0 l 257
EndSplineSet
EndChar

StartChar: kgreenlandic
Encoding: 249 312 318
Width: 1148
VWidth: 0
Flags: HW
PickledData: "(dp1
S'org.robofab.postScriptHintData'
p2
(dp3
s."
LayerCount: 2
Fore
SplineSet
186 0 m 257
 374 0 l 257
 374 354 l 257
 521 498 l 257
 905 0 l 257
 1122 0 l 257
 665 583 l 257
 1079 1060 l 257
 871 1060 l 257
 702 877 544 692 374 510 c 257
 374 1060 l 257
 186 1060 l 257
 186 0 l 257
EndSplineSet
EndChar

StartChar: l
Encoding: 77 108 319
Width: 692
VWidth: 0
Flags: HW
PickledData: "(dp1
S'org.robofab.postScriptHintData'
p2
(dp3
s."
AnchorPoint: "top" 301 1506 basechar 0
AnchorPoint: "caron.alt" 234 1060 basechar 0
AnchorPoint: "bot" 380 0 basechar 0
LayerCount: 2
Fore
SplineSet
530 -8 m 258
 584 -8 l 257
 606 150 l 257
 573 150 l 258
 416 150 378 183 378 356 c 258
 378 1505 l 257
 190 1505 l 257
 190 358 l 258
 190 49 298 -8 530 -8 c 258
EndSplineSet
EndChar

StartChar: less
Encoding: 29 60 324
Width: 1250
VWidth: 0
Flags: HW
PickledData: "(dp1
S'org.robofab.postScriptHintData'
p2
(dp3
s."
LayerCount: 2
Fore
SplineSet
1042 0 m 257
 1042 209 l 257
 311 573 l 257
 1042 941 l 257
 1042 1144 l 257
 156 672 l 257
 156 471 l 257
 1042 0 l 257
EndSplineSet
EndChar

StartChar: logicalnot
Encoding: 109 172 327
Width: 864
VWidth: 0
Flags: HW
PickledData: "(dp1
S'org.robofab.postScriptHintData'
p2
(dp3
s."
LayerCount: 2
Fore
SplineSet
589 333 m 257
 721 333 l 257
 721 692 l 257
 98 692 l 257
 98 556 l 257
 589 556 l 257
 589 333 l 257
EndSplineSet
EndChar

StartChar: lozenge
Encoding: 487 9674 328
Width: 1104
VWidth: 0
Flags: HW
PickledData: "(dp1
S'org.robofab.postScriptHintData'
p2
(dp3
s."
LayerCount: 2
Fore
SplineSet
480 0 m 257
 650 0 l 257
 988 725 l 257
 650 1446 l 257
 480 1446 l 257
 116 725 l 257
 480 0 l 257
567 160 m 257
 295 725 l 257
 567 1276 l 257
 814 725 l 257
 567 160 l 257
EndSplineSet
EndChar

StartChar: lslash
Encoding: 259 322 329
Width: 708
VWidth: 0
Flags: HW
PickledData: "(dp1
S'org.robofab.postScriptHintData'
p2
(dp3
s."
LayerCount: 2
Fore
SplineSet
52 616 m 257
 604 887 l 257
 604 1011 l 257
 52 740 l 257
 52 616 l 257
EndSplineSet
Refer: 319 108 N 1 0 0 1 0 0 2
EndChar

StartChar: m
Encoding: 78 109 330
Width: 1860
VWidth: 0
Flags: HW
PickledData: "(dp1
S'org.robofab.postScriptHintData'
p2
(dp3
s."
AnchorPoint: "top" 994 1060 basechar 0
LayerCount: 2
Fore
SplineSet
186 0 m 257
 374 0 l 257
 374 755 l 258
 374 857 446 936 630 936 c 256
 761 936 844 886 844 781 c 258
 844 0 l 257
 1032 0 l 257
 1032 755 l 258
 1032 857 1104 936 1288 936 c 256
 1419 936 1496 886 1496 781 c 258
 1496 0 l 257
 1684 0 l 257
 1684 770 l 258
 1684 938 1597 1080 1336 1080 c 256
 1182 1080 1082 1031 989 941 c 257
 939 1024 842 1080 678 1080 c 256
 524 1080 436 1029 374 957 c 257
 374 1060 l 257
 186 1060 l 257
 186 0 l 257
EndSplineSet
EndChar

StartChar: macron
Encoding: 112 175 331
Width: 513
VWidth: 0
Flags: HW
PickledData: "(dp1
S'org.robofab.postScriptHintData'
p2
(dp3
s."
AnchorPoint: "top" 257 1060 mark 0
AnchorPoint: "mid" 257 1394 mark 0
LayerCount: 2
Fore
SplineSet
-8 1321 m 257
 521 1321 l 257
 521 1468 l 257
 -8 1468 l 257
 -8 1321 l 257
EndSplineSet
EndChar

StartChar: minus
Encoding: 477 8722 334
Width: 911
VWidth: 0
Flags: HW
PickledData: "(dp1
S'org.robofab.postScriptHintData'
p2
(dp3
s."
LayerCount: 2
Fore
SplineSet
142 439 m 257
 769 439 l 257
 769 609 l 257
 142 609 l 257
 142 439 l 257
EndSplineSet
EndChar

StartChar: mu
Encoding: 421 956 335
Width: 1224
VWidth: 0
Flags: HW
PickledData: "(dp1
S'org.robofab.postScriptHintData'
p2
(dp3
s."
AnchorPoint: "top" 622 1060 basechar 0
AnchorPoint: "ogonek" 957 0 basechar 0
LayerCount: 2
Fore
SplineSet
848 1060 m 257
 848 309 l 258
 848 220 760 122 576 122 c 256
 445 122 362 184 362 289 c 258
 362 1060 l 257
 174 1060 l 257
 174 -383 l 257
 362 -383 l 257
 362 7 l 257
 410 -12 469 -22 539 -22 c 256
 693 -22 794 38 848 133 c 257
 868 0 l 257
 1036 0 l 257
 1036 1060 l 257
 848 1060 l 257
EndSplineSet
EndChar

StartChar: multiply
Encoding: 152 215 336
Width: 973
VWidth: 0
Flags: HW
PickledData: "(dp1
S'org.robofab.postScriptHintData'
p2
(dp3
s."
LayerCount: 2
Fore
SplineSet
239 216 m 257
 487 458 l 257
 735 216 l 257
 844 344 l 257
 608 576 l 257
 844 806 l 257
 735 937 l 257
 487 694 l 257
 239 937 l 257
 129 806 l 257
 366 576 l 257
 129 344 l 257
 239 216 l 257
EndSplineSet
EndChar

StartChar: n
Encoding: 79 110 337
Width: 1224
VWidth: 0
Flags: HW
PickledData: "(dp1
S'org.robofab.postScriptHintData'
p2
(dp3
s."
AnchorPoint: "top" 684 1060 basechar 0
AnchorPoint: "bot" 613 0 basechar 0
LayerCount: 2
Fore
SplineSet
186 0 m 257
 374 0 l 257
 374 755 l 258
 374 857 456 936 640 936 c 256
 771 936 862 886 862 781 c 258
 862 0 l 257
 1050 0 l 257
 1050 770 l 258
 1050 938 949 1080 688 1080 c 256
 534 1080 436 1029 374 957 c 257
 374 1060 l 257
 186 1060 l 257
 186 0 l 257
EndSplineSet
EndChar

StartChar: nine
Encoding: 26 57 342
Width: 1250
VWidth: 0
Flags: HW
PickledData: "(dp1
S'org.robofab.postScriptHintData'
p2
(dp3
s."
LayerCount: 2
Fore
SplineSet
451 0 m 257
 651 0 l 257
 965 549 l 257
 1059 718 1106 878 1106 1020 c 256
 1106 1340 913 1468 637 1468 c 256
 361 1468 151 1342 151 1024 c 256
 151 694 334 568 630 568 c 256
 690 568 765 586 808 605 c 257
 451 0 l 257
634 731 m 256
 455 731 338 778 338 1024 c 256
 338 1249 454 1306 634 1306 c 256
 815 1306 919 1249 919 1021 c 256
 919 800 815 731 634 731 c 256
EndSplineSet
EndChar

StartChar: notequal
Encoding: 484 8800 344
Width: 768
VWidth: 0
Flags: HW
PickledData: "(dp1
S'org.robofab.postScriptHintData'
p2
(dp3
s."
LayerCount: 2
Fore
SplineSet
128 205 m 257
 275 205 l 257
 652 1186 l 257
 509 1186 l 257
 128 205 l 257
EndSplineSet
Refer: 255 61 N 1 0 0 1 -241 0 2
EndChar

StartChar: numbersign
Encoding: 4 35 346
Width: 1284
VWidth: 0
Flags: HW
PickledData: "(dp1
S'org.robofab.postScriptHintData'
p2
(dp3
s."
LayerCount: 2
Fore
SplineSet
180 0 m 257
 358 0 l 257
 442 475 l 257
 740 475 l 257
 653 0 l 257
 831 0 l 257
 915 475 l 257
 1174 475 l 257
 1174 594 l 257
 936 594 l 257
 992 910 l 257
 1198 910 l 257
 1198 1029 l 257
 1013 1029 l 257
 1087 1446 l 257
 917 1446 l 257
 841 1029 l 257
 540 1029 l 257
 614 1446 l 257
 444 1446 l 257
 368 1029 l 257
 110 1029 l 257
 110 910 l 257
 346 910 l 257
 289 594 l 257
 86 594 l 257
 86 475 l 257
 267 475 l 257
 180 0 l 257
463 594 m 257
 519 910 l 257
 819 910 l 257
 762 594 l 257
 463 594 l 257
EndSplineSet
EndChar

StartChar: o
Encoding: 80 111 347
Width: 1174
VWidth: 0
Flags: HW
PickledData: "(dp1
S'org.robofab.postScriptHintData'
p2
(dp3
s."
AnchorPoint: "top" 585 1060 basechar 0
AnchorPoint: "ogonek" 635 0 basechar 0
AnchorPoint: "bot" 594 0 basechar 0
LayerCount: 2
Fore
SplineSet
587 122 m 256
 437 122 336 168 336 299 c 258
 336 758 l 258
 336 889 437 936 587 936 c 256
 734 936 838 889 838 758 c 258
 838 299 l 258
 838 168 734 122 587 122 c 256
587 -22 m 256
 903 -22 1026 119 1026 315 c 258
 1026 742 l 258
 1026 938 903 1080 587 1080 c 256
 268 1080 148 938 148 742 c 258
 148 315 l 258
 148 119 268 -22 587 -22 c 256
EndSplineSet
Substitution2: "Single Substitution lookup 15 subtable" ordmasculine
EndChar

StartChar: oe
Encoding: 276 339 354
Width: 1734
VWidth: 0
Flags: HW
PickledData: "(dp1
S'org.robofab.postScriptHintData'
p2
(dp3
s."
AnchorPoint: "top" 867 0 basechar 0
LayerCount: 2
Fore
SplineSet
569 -20 m 256
 730 -20 822 34 883 122 c 257
 947 35 1054 -20 1198 -20 c 256
 1488 -20 1582 73 1603 331 c 257
 1433 331 l 257
 1420 148 1364 121 1198 121 c 256
 1051 121 979 186 979 328 c 258
 979 506 l 257
 1604 506 l 257
 1604 758 l 258
 1604 959 1474 1080 1198 1080 c 256
 1053 1080 949 1043 883 950 c 257
 813 1043 707 1080 569 1080 c 256
 306 1080 150 947 150 747 c 258
 150 317 l 258
 150 121 253 -20 569 -20 c 256
569 121 m 256
 422 121 338 170 338 301 c 258
 338 763 l 258
 338 894 430 938 569 938 c 256
 714 938 791 888 791 763 c 258
 791 301 l 258
 791 171 708 121 569 121 c 256
979 633 m 257
 979 760 l 258
 979 891 1048 938 1198 938 c 256
 1343 938 1422 906 1422 778 c 258
 1422 633 l 257
 979 633 l 257
EndSplineSet
EndChar

StartChar: ogonek
Encoding: 409 731 355
Width: 513
VWidth: 0
Flags: HW
PickledData: "(dp1
S'org.robofab.postScriptHintData'
p2
(dp3
s."
AnchorPoint: "ogonek" 322 0 mark 0
LayerCount: 2
Fore
SplineSet
407 -476 m 257
 407 -379 l 257
 280 -379 238 -320 238 -245 c 256
 238 -160 291 -54 358 10 c 257
 296 10 l 257
 166 -100 114 -201 114 -281 c 256
 114 -400 228 -476 407 -476 c 257
EndSplineSet
EndChar

StartChar: one
Encoding: 18 49 360
Width: 1250
VWidth: 0
Flags: HW
PickledData: "(dp1
S'org.robofab.postScriptHintData'
p2
(dp3
s."
LayerCount: 2
Fore
SplineSet
206 0 m 257
 1162 0 l 257
 1162 155 l 257
 808 155 l 257
 808 1446 l 257
 644 1446 l 257
 215 1396 l 257
 233 1237 l 257
 607 1277 l 257
 607 155 l 257
 206 155 l 257
 206 0 l 257
EndSplineSet
Substitution2: "'sups' Superscript lookup 11 subtable" onesuperior
EndChar

StartChar: onehalf
Encoding: 126 189 361
Width: 2047
VWidth: 0
Flags: HW
PickledData: "(dp1
S'org.robofab.postScriptHintData'
p2
(dp3
s."
LayerCount: 2
Fore
SplineSet
1371 2 m 257
 1883 2 l 257
 1883 101 l 257
 1512 101 l 257
 1725 339 l 258
 1807 431 1879 495 1879 625 c 256
 1879 758 1795 867 1614 867 c 256
 1445 867 1332 789 1332 605 c 257
 1449 605 l 257
 1449 741 1494 765 1616 765 c 256
 1719 765 1762 719 1762 624 c 256
 1762 542 1727 503 1643 413 c 257
 1360 94 l 257
 1371 2 l 257
164 654 m 257
 800 654 l 257
 800 755 l 257
 569 755 l 257
 569 1505 l 257
 462 1505 l 257
 170 1472 l 257
 182 1368 l 257
 438 1394 l 257
 438 755 l 257
 164 755 l 257
 164 654 l 257
687 0 m 257
 819 0 l 257
 1497 1446 l 257
 1371 1446 l 257
 687 0 l 257
EndSplineSet
Ligature2: "'frac' Diagonal Fractions lookup 12 subtable" one slash two
EndChar

StartChar: onequarter
Encoding: 125 188 362
Width: 2047
VWidth: 0
Flags: HW
PickledData: "(dp1
S'org.robofab.postScriptHintData'
p2
(dp3
s."
LayerCount: 2
Fore
SplineSet
1655 0 m 257
 1768 0 l 257
 1768 207 l 257
 1912 207 l 257
 1912 298 l 257
 1768 298 l 257
 1768 533 l 257
 1655 533 l 257
 1655 298 l 257
 1373 298 l 257
 1721 892 l 257
 1580 892 l 257
 1221 299 l 257
 1221 207 l 257
 1655 207 l 257
 1655 0 l 257
164 654 m 257
 800 654 l 257
 800 755 l 257
 569 755 l 257
 569 1505 l 257
 462 1505 l 257
 170 1472 l 257
 182 1368 l 257
 438 1394 l 257
 438 755 l 257
 164 755 l 257
 164 654 l 257
687 0 m 257
 819 0 l 257
 1497 1446 l 257
 1371 1446 l 257
 687 0 l 257
EndSplineSet
Ligature2: "'frac' Diagonal Fractions lookup 12 subtable" one slash four
EndChar

StartChar: onesuperior
Encoding: 122 185 363
Width: 1050
VWidth: 0
Flags: HW
PickledData: "(dp1
S'org.robofab.postScriptHintData'
p2
(dp3
s."
LayerCount: 2
Fore
SplineSet
207 694 m 257
 843 694 l 257
 843 795 l 257
 612 795 l 257
 612 1545 l 257
 505 1545 l 257
 213 1512 l 257
 225 1408 l 257
 481 1434 l 257
 481 795 l 257
 207 795 l 257
 207 694 l 257
EndSplineSet
EndChar

StartChar: oslash
Encoding: 185 248 367
Width: 1174
VWidth: 0
Flags: HW
PickledData: "(dp1
S'org.robofab.postScriptHintData'
p2
(dp3
s."
AnchorPoint: "top" 587 1060 basechar 0
LayerCount: 2
Fore
SplineSet
363 -226 m 257
 901 1220 l 257
 811 1251 l 257
 271 -195 l 257
 363 -226 l 257
EndSplineSet
Refer: 347 111 N 1 0 0 1 0 0 2
EndChar

StartChar: p
Encoding: 81 112 370
Width: 1198
VWidth: 0
Flags: HW
PickledData: "(dp1
S'org.robofab.postScriptHintData'
p2
(dp3
s."
AnchorPoint: "top" 648 1060 basechar 0
LayerCount: 2
Fore
SplineSet
186 -408 m 257
 374 -408 l 257
 374 34 l 257
 425 8 505 -22 624 -22 c 256
 900 -22 1050 131 1050 344 c 258
 1050 729 l 258
 1050 933 919 1080 648 1080 c 256
 527 1080 412 1030 356 980 c 257
 334 1060 l 257
 186 1060 l 257
 186 -408 l 257
612 122 m 256
 503 122 422 152 374 179 c 257
 374 824 l 257
 391 850 486 936 619 936 c 256
 757 936 862 871 862 744 c 258
 862 324 l 258
 862 194 760 122 612 122 c 256
EndSplineSet
EndChar

StartChar: paragraph
Encoding: 119 182 371
Width: 1250
VWidth: 0
Flags: HW
PickledData: "(dp1
S'org.robofab.postScriptHintData'
p2
(dp3
s."
LayerCount: 2
Fore
SplineSet
536 -210 m 257
 686 -210 l 257
 686 1338 l 257
 825 1338 l 257
 825 -210 l 257
 961 -210 l 257
 961 1446 l 257
 572 1446 l 258
 378 1446 168 1372 168 1156 c 256
 168 976 364 874 536 870 c 257
 536 -210 l 257
EndSplineSet
EndChar

StartChar: parenleft
Encoding: 9 40 372
Width: 768
VWidth: 0
Flags: HW
PickledData: "(dp1
S'org.robofab.postScriptHintData'
p2
(dp3
s."
LayerCount: 2
Fore
SplineSet
644 -150 m 257
 644 0 l 257
 366 0 364 153 364 409 c 258
 364 996 l 258
 364 1253 366 1416 644 1416 c 257
 644 1567 l 257
 174 1567 172 1265 172 959 c 258
 172 440 l 258
 172 139 174 -150 644 -150 c 257
EndSplineSet
EndChar

StartChar: parenright
Encoding: 10 41 373
Width: 768
VWidth: 0
Flags: HW
PickledData: "(dp1
S'org.robofab.postScriptHintData'
p2
(dp3
s."
LayerCount: 2
Fore
SplineSet
124 -150 m 257
 594 -150 596 152 596 458 c 258
 596 977 l 258
 596 1278 594 1567 124 1567 c 257
 124 1417 l 257
 402 1417 404 1264 404 1008 c 258
 404 421 l 258
 404 164 402 1 124 1 c 257
 124 -150 l 257
EndSplineSet
EndChar

StartChar: partialdiff
Encoding: 472 8706 374
Width: 1202
VWidth: 0
Flags: HW
PickledData: "(dp1
S'org.robofab.postScriptHintData'
p2
(dp3
s."
LayerCount: 2
Fore
SplineSet
469 -20 m 256
 821 -20 1056 385 1056 913 c 256
 1056 1325 838 1507 580 1507 c 256
 471 1507 356 1475 246 1415 c 257
 271 1354 l 257
 345 1389 422 1407 496 1407 c 256
 694 1407 863 1273 863 969 c 256
 863 957 863 944 862 931 c 257
 406 924 152 568 152 294 c 256
 152 121 254 -20 469 -20 c 256
483 98 m 256
 409 98 372 169 372 266 c 256
 372 475 540 808 856 828 c 257
 836 542 725 98 483 98 c 256
EndSplineSet
EndChar

StartChar: percent
Encoding: 6 37 376
Width: 2048
VWidth: 0
Flags: HW
PickledData: "(dp1
S'org.robofab.postScriptHintData'
p2
(dp3
s."
LayerCount: 2
Fore
SplineSet
470 794 m 256
 332 794 315 899 315 1040 c 258
 315 1135 l 258
 315 1271 327 1365 470 1365 c 256
 614 1365 627 1271 627 1133 c 258
 627 1040 l 258
 627 899 608 794 470 794 c 256
470 678 m 256
 700 678 772 828 772 1057 c 258
 772 1111 l 257
 770 1344 700 1481 470 1481 c 256
 239 1481 172 1343 172 1110 c 258
 172 1057 l 258
 172 829 240 678 470 678 c 256
1574 97 m 256
 1436 97 1419 202 1419 343 c 258
 1419 438 l 258
 1419 574 1431 668 1574 668 c 256
 1718 668 1731 574 1731 436 c 258
 1731 343 l 258
 1731 202 1712 97 1574 97 c 256
1574 -19 m 256
 1804 -19 1876 131 1876 360 c 258
 1876 414 l 257
 1874 647 1804 784 1574 784 c 256
 1343 784 1276 646 1276 413 c 258
 1276 360 l 258
 1276 132 1344 -19 1574 -19 c 256
668 0 m 257
 822 0 l 257
 1360 1446 l 257
 1211 1446 l 257
 668 0 l 257
EndSplineSet
EndChar

StartChar: period
Encoding: 15 46 377
Width: 628
VWidth: 0
Flags: HW
PickledData: "(dp1
S'org.robofab.postScriptHintData'
p2
(dp3
s."
LayerCount: 2
Fore
SplineSet
186 0 m 257
 442 0 l 257
 442 242 l 257
 186 242 l 257
 186 0 l 257
EndSplineSet
EndChar

StartChar: periodcentered
Encoding: 120 183 378
Width: 734
VWidth: 0
Flags: HW
PickledData: "(dp1
S'org.robofab.postScriptHintData'
p2
(dp3
s."
AnchorPoint: "mid" 105 714 mark 0
LayerCount: 2
Fore
SplineSet
429 622 m 257
 634 622 l 257
 634 828 l 257
 429 828 l 257
 429 622 l 257
EndSplineSet
EndChar

StartChar: perthousand
Encoding: 462 8240 379
Width: 2886
VWidth: 0
Flags: HW
PickledData: "(dp1
S'org.robofab.postScriptHintData'
p2
(dp3
s."
LayerCount: 2
Fore
SplineSet
507 774 m 256
 369 774 352 879 352 1020 c 258
 352 1115 l 258
 352 1251 364 1345 507 1345 c 256
 651 1345 664 1251 664 1113 c 258
 664 1020 l 258
 664 879 645 774 507 774 c 256
507 658 m 256
 737 658 809 808 809 1037 c 258
 809 1091 l 257
 807 1324 737 1461 507 1461 c 256
 276 1461 209 1323 209 1090 c 258
 209 1037 l 258
 209 809 277 658 507 658 c 256
1611 97 m 256
 1473 97 1456 202 1456 343 c 258
 1456 438 l 258
 1456 574 1468 668 1611 668 c 256
 1755 668 1768 574 1768 436 c 258
 1768 343 l 258
 1768 202 1749 97 1611 97 c 256
1611 -19 m 256
 1841 -19 1913 131 1913 360 c 258
 1913 414 l 257
 1911 647 1841 784 1611 784 c 256
 1380 784 1313 646 1313 413 c 258
 1313 360 l 258
 1313 132 1381 -19 1611 -19 c 256
2390 97 m 256
 2252 97 2235 202 2235 343 c 258
 2235 438 l 258
 2235 574 2247 668 2390 668 c 256
 2534 668 2547 574 2547 436 c 258
 2547 343 l 258
 2547 202 2528 97 2390 97 c 256
2390 -19 m 256
 2620 -19 2692 131 2692 360 c 258
 2692 414 l 257
 2690 647 2620 784 2390 784 c 256
 2159 784 2092 646 2092 413 c 258
 2092 360 l 258
 2092 132 2160 -19 2390 -19 c 256
705 0 m 257
 859 0 l 257
 1397 1446 l 257
 1248 1446 l 257
 705 0 l 257
EndSplineSet
EndChar

StartChar: pi
Encoding: 422 960 380
Width: 1180
VWidth: 0
Flags: HW
PickledData: "(dp1
S'org.robofab.postScriptHintData'
p2
(dp3
s."
LayerCount: 2
Fore
SplineSet
31 875 m 257
 31 875 138 935 251 935 c 257
 251 0 l 257
 439 0 l 257
 439 935 l 257
 745 935 l 257
 745 267 l 258
 745 31 839 -21 1044 -22 c 257
 1092 124 l 257
 956 154 933 167 933 333 c 258
 933 935 l 257
 1115 935 l 257
 1115 1060 l 257
 218 1060 l 258
 97 1060 31 1000 31 1000 c 257
 31 875 l 257
EndSplineSet
EndChar

StartChar: plus
Encoding: 12 43 381
Width: 1024
VWidth: 0
Flags: HW
PickledData: "(dp1
S'org.robofab.postScriptHintData'
p2
(dp3
s."
LayerCount: 2
Fore
SplineSet
437 156 m 257
 588 156 l 257
 588 494 l 257
 862 494 l 257
 862 642 l 257
 588 642 l 257
 588 968 l 257
 437 968 l 257
 437 642 l 257
 162 642 l 257
 162 494 l 257
 437 494 l 257
 437 156 l 257
EndSplineSet
EndChar

StartChar: plusminus
Encoding: 114 177 382
Width: 1041
VWidth: 0
Flags: HW
PickledData: "(dp1
S'org.robofab.postScriptHintData'
p2
(dp3
s."
LayerCount: 2
Fore
SplineSet
460 334 m 257
 581 334 l 257
 581 611 l 257
 834 611 l 257
 834 726 l 257
 581 726 l 257
 581 992 l 257
 460 992 l 257
 460 726 l 257
 207 726 l 257
 207 611 l 257
 460 611 l 257
 460 334 l 257
207 0 m 257
 834 0 l 257
 834 120 l 257
 207 120 l 257
 207 0 l 257
EndSplineSet
EndChar

StartChar: product
Encoding: 475 8719 383
Width: 1792
VWidth: 0
Flags: HW
PickledData: "(dp1
S'org.robofab.postScriptHintData'
p2
(dp3
s."
LayerCount: 2
Fore
SplineSet
660 319 m 257
 791 319 l 257
 791 652 l 257
 969 652 l 258
 1189 652 1245 760 1245 894 c 258
 1245 908 l 257
 1241 1082 1139 1153 982 1153 c 258
 660 1153 l 257
 660 319 l 257
791 742 m 257
 791 1062 l 257
 986 1062 l 258
 1104 1062 1113 960 1113 901 c 258
 1113 877 l 257
 1112 814 1091 742 977 742 c 258
 791 742 l 257
898 82 m 256
 534 82 269 357 269 722 c 256
 269 1086 534 1361 898 1361 c 256
 1264 1361 1526 1086 1526 722 c 256
 1526 357 1264 82 898 82 c 256
896 -14 m 256
 1312 -14 1632 303 1632 722 c 256
 1632 1139 1312 1456 896 1456 c 256
 483 1456 160 1139 160 722 c 256
 160 303 483 -14 896 -14 c 256
EndSplineSet
EndChar

StartChar: q
Encoding: 82 113 384
Width: 1200
VWidth: 0
Flags: HW
PickledData: "(dp1
S'org.robofab.postScriptHintData'
p2
(dp3
s."
LayerCount: 2
Fore
SplineSet
826 -408 m 257
 1014 -408 l 257
 1014 1060 l 257
 826 1060 l 257
 826 975 l 257
 796 1025 668 1080 560 1080 c 256
 284 1080 148 941 148 728 c 258
 148 314 l 258
 148 110 302 -22 573 -22 c 256
 646 -22 761 -3 826 47 c 257
 826 -408 l 257
585 122 m 256
 447 122 336 157 336 284 c 258
 336 748 l 258
 336 878 440 936 588 936 c 256
 755 936 826 869 826 810 c 258
 826 201 l 257
 816 180 725 122 585 122 c 256
EndSplineSet
EndChar

StartChar: question
Encoding: 32 63 385
Width: 1240
VWidth: 0
Flags: HW
PickledData: "(dp1
S'org.robofab.postScriptHintData'
p2
(dp3
s."
LayerCount: 2
Fore
SplineSet
466 431 m 257
 626 431 l 257
 834 650 l 258
 989 814 1096 931 1096 1114 c 256
 1096 1277 1005 1468 657 1468 c 256
 316 1468 179 1374 179 1071 c 258
 179 1039 l 257
 376 1039 l 257
 376 1092 l 258
 376 1225 441 1306 657 1306 c 256
 836 1306 883 1222 883 1103 c 256
 883 986 825 909 740 795 c 258
 466 431 l 257
440 0 m 257
 644 0 l 257
 644 206 l 257
 440 206 l 257
 440 0 l 257
EndSplineSet
EndChar

StartChar: quotedbl
Encoding: 3 34 387
Width: 890
VWidth: 0
Flags: HW
PickledData: "(dp1
S'org.robofab.postScriptHintData'
p2
(dp3
s."
LayerCount: 2
Fore
SplineSet
220 930 m 257
 332 930 l 257
 381 1506 l 257
 176 1506 l 257
 220 930 l 257
553 930 m 257
 665 930 l 257
 714 1506 l 257
 509 1506 l 257
 553 930 l 257
EndSplineSet
EndChar

StartChar: quotedblbase
Encoding: 457 8222 388
Width: 1181
VWidth: 0
Flags: HW
PickledData: "(dp1
S'org.robofab.postScriptHintData'
p2
(dp3
s."
LayerCount: 2
Fore
SplineSet
689 -338 m 257
 747 -284 861 -141 861 50 c 258
 861 233 l 257
 604 233 l 257
 604 0 l 257
 745 0 l 257
 745 -132 655 -239 608 -294 c 257
 689 -338 l 257
277 -338 m 257
 335 -284 449 -141 449 50 c 258
 449 233 l 257
 192 233 l 257
 192 0 l 257
 333 0 l 257
 333 -132 243 -239 196 -294 c 257
 277 -338 l 257
EndSplineSet
EndChar

StartChar: quotedblleft
Encoding: 455 8220 389
Width: 1181
VWidth: 0
Flags: HW
PickledData: "(dp1
S'org.robofab.postScriptHintData'
p2
(dp3
s."
LayerCount: 2
Fore
SplineSet
492 1468 m 257
 434 1414 320 1271 320 1080 c 258
 320 897 l 257
 577 897 l 257
 577 1130 l 257
 436 1130 l 257
 436 1262 526 1369 573 1424 c 257
 492 1468 l 257
904 1468 m 257
 846 1414 732 1271 732 1080 c 258
 732 897 l 257
 989 897 l 257
 989 1130 l 257
 848 1130 l 257
 848 1262 938 1369 985 1424 c 257
 904 1468 l 257
EndSplineSet
EndChar

StartChar: quotedblright
Encoding: 456 8221 390
Width: 1181
VWidth: 0
Flags: HW
PickledData: "(dp1
S'org.robofab.postScriptHintData'
p2
(dp3
s."
LayerCount: 2
Fore
SplineSet
277 897 m 257
 335 951 449 1094 449 1285 c 258
 449 1468 l 257
 192 1468 l 257
 192 1235 l 257
 333 1235 l 257
 333 1103 243 996 196 941 c 257
 277 897 l 257
689 897 m 257
 747 951 861 1094 861 1285 c 258
 861 1468 l 257
 604 1468 l 257
 604 1235 l 257
 745 1235 l 257
 745 1103 655 996 608 941 c 257
 689 897 l 257
EndSplineSet
EndChar

StartChar: quoteleft
Encoding: 452 8216 391
Width: 769
VWidth: 0
Flags: HW
PickledData: "(dp1
S'org.robofab.postScriptHintData'
p2
(dp3
s."
LayerCount: 2
Fore
SplineSet
492 1468 m 257
 434 1414 320 1271 320 1080 c 258
 320 897 l 257
 577 897 l 257
 577 1130 l 257
 436 1130 l 257
 436 1262 526 1369 573 1424 c 257
 492 1468 l 257
EndSplineSet
EndChar

StartChar: quoteright
Encoding: 453 8217 392
Width: 769
VWidth: 0
Flags: HW
PickledData: "(dp1
S'org.robofab.postScriptHintData'
p2
(dp3
s."
LayerCount: 2
Fore
SplineSet
277 897 m 257
 335 951 449 1094 449 1285 c 258
 449 1468 l 257
 192 1468 l 257
 192 1235 l 257
 333 1235 l 257
 333 1103 243 996 196 941 c 257
 277 897 l 257
EndSplineSet
EndChar

StartChar: quotesinglbase
Encoding: 454 8218 393
Width: 769
VWidth: 0
Flags: HW
PickledData: "(dp1
S'org.robofab.postScriptHintData'
p2
(dp3
s."
LayerCount: 2
Fore
SplineSet
277 -338 m 257
 335 -284 449 -141 449 50 c 258
 449 233 l 257
 192 233 l 257
 192 0 l 257
 333 0 l 257
 333 -132 243 -239 196 -294 c 257
 277 -338 l 257
EndSplineSet
EndChar

StartChar: quotesingle
Encoding: 8 39 394
Width: 896
VWidth: 0
Flags: HW
PickledData: "(dp1
S'org.robofab.postScriptHintData'
p2
(dp3
s."
LayerCount: 2
Fore
SplineSet
223 930 m 257
 335 930 l 257
 384 1506 l 257
 179 1506 l 257
 223 930 l 257
EndSplineSet
EndChar

StartChar: r
Encoding: 83 114 395
Width: 798
VWidth: 0
Flags: HW
PickledData: "(dp1
S'org.robofab.postScriptHintData'
p2
(dp3
s."
AnchorPoint: "top" 477 1060 basechar 0
AnchorPoint: "bot" 286 0 basechar 0
LayerCount: 2
Fore
SplineSet
186 0 m 257
 374 0 l 257
 374 722 l 258
 374 828 555 914 736 914 c 257
 742 1075 l 257
 602 1075 425 1027 374 890 c 257
 374 1060 l 257
 186 1060 l 257
 186 0 l 257
EndSplineSet
EndChar

StartChar: radical
Encoding: 480 8730 397
Width: 1249
VWidth: 0
Flags: HW
PickledData: "(dp1
S'org.robofab.postScriptHintData'
p2
(dp3
s."
LayerCount: 2
Fore
SplineSet
98 442 m 257
 217 442 l 257
 447 0 l 257
 624 0 l 257
 1238 1506 l 257
 1102 1506 l 257
 544 159 l 257
 359 553 l 257
 98 553 l 257
 98 442 l 257
EndSplineSet
EndChar

StartChar: registered
Encoding: 111 174 401
Width: 1784
VWidth: 0
Flags: HW
PickledData: "(dp1
S'org.robofab.postScriptHintData'
p2
(dp3
s."
LayerCount: 2
Fore
SplineSet
596 319 m 257
 727 319 l 257
 727 652 l 257
 986 652 l 257
 1166 319 l 257
 1294 319 l 257
 1110 666 l 257
 1202 691 1262 760 1262 894 c 258
 1262 908 l 257
 1258 1082 1156 1153 999 1153 c 258
 596 1153 l 257
 596 319 l 257
727 742 m 257
 727 1062 l 257
 1003 1062 l 258
 1121 1062 1130 960 1130 901 c 258
 1130 877 l 257
 1129 814 1108 742 994 742 c 258
 727 742 l 257
894 82 m 256
 530 82 265 357 265 722 c 256
 265 1086 530 1361 894 1361 c 256
 1260 1361 1522 1086 1522 722 c 256
 1522 357 1260 82 894 82 c 256
892 -14 m 256
 1308 -14 1628 303 1628 722 c 256
 1628 1139 1308 1456 892 1456 c 256
 479 1456 156 1139 156 722 c 256
 156 303 479 -14 892 -14 c 256
EndSplineSet
EndChar

StartChar: ring
Encoding: 408 730 402
Width: 512
VWidth: 0
Flags: HW
PickledData: "(dp1
S'org.robofab.postScriptHintData'
p2
(dp3
s."
AnchorPoint: "top" 256 1060 mark 0
LayerCount: 2
Fore
SplineSet
256 1233 m 256
 199 1233 147 1259 147 1347 c 256
 147 1434 200 1459 256 1459 c 256
 314 1459 365 1432 365 1345 c 256
 365 1258 313 1233 256 1233 c 256
256 1168 m 256
 356 1168 450 1223 450 1346 c 256
 450 1469 356 1524 256 1524 c 256
 156 1524 62 1469 62 1346 c 256
 62 1223 156 1168 256 1168 c 256
EndSplineSet
EndChar

StartChar: s
Encoding: 84 115 404
Width: 982
VWidth: 0
Flags: HW
PickledData: "(dp1
S'org.robofab.postScriptHintData'
p2
(dp3
sS'com.typemytype.robofont.layerData'
p4
(dp5
s."
AnchorPoint: "top" 520 1060 basechar 0
AnchorPoint: "bot" 515 0 basechar 0
LayerCount: 2
Fore
SplineSet
524 -22 m 256
 776 -22 872 116 872 283 c 256
 872 448 838 515 660 585 c 258
 411 683 l 257
 338 709 320 733 320 799 c 256
 320 895 352 936 524 936 c 256
 613 936 742 903 803 878 c 257
 846 1022 l 257
 768 1053 638 1080 489 1080 c 256
 227 1080 145 969 145 790 c 256
 145 658 197 590 352 536 c 257
 604 443 l 258
 704 406 712 363 712 281 c 256
 712 192 666 122 499 122 c 256
 355 122 231 176 184 202 c 257
 138 64 l 257
 186 37 326 -22 524 -22 c 256
EndSplineSet
EndChar

StartChar: section
Encoding: 104 167 411
Width: 1002
VWidth: 0
Flags: HW
PickledData: "(dp1
S'org.robofab.postScriptHintData'
p2
(dp3
s."
LayerCount: 2
Fore
SplineSet
144 64 m 257
 194 37 338 -22 542 -22 c 256
 801 -22 900 116 900 283 c 256
 900 376 889 439 846 487 c 257
 883 539 900 602 900 671 c 256
 900 836 865 903 682 973 c 258
 425 1071 l 258
 352 1099 332 1121 332 1184 c 256
 332 1283 363 1324 542 1324 c 256
 633 1324 766 1291 829 1266 c 257
 874 1410 l 257
 793 1441 659 1468 506 1468 c 256
 236 1468 151 1358 151 1178 c 256
 151 1097 171 1041 223 997 c 257
 170 946 151 880 151 792 c 256
 151 658 205 593 365 536 c 258
 624 443 l 258
 727 406 736 363 736 281 c 256
 736 192 688 122 516 122 c 256
 368 122 240 176 191 202 c 257
 144 64 l 257
716 571 m 257
 425 683 l 258
 352 711 332 742 332 806 c 256
 332 849 354 924 365 924 c 257
 624 831 l 258
 727 794 736 751 736 669 c 256
 736 637 730 602 716 571 c 257
EndSplineSet
EndChar

StartChar: seven
Encoding: 24 55 413
Width: 1250
VWidth: 0
Flags: HW
PickledData: "(dp1
S'org.robofab.postScriptHintData'
p2
(dp3
s."
LayerCount: 2
Fore
SplineSet
369 0 m 257
 580 0 l 257
 1070 1289 l 257
 1070 1446 l 257
 189 1446 l 257
 189 1291 l 257
 869 1291 l 257
 369 0 l 257
EndSplineSet
EndChar

StartChar: six
Encoding: 23 54 414
Width: 1250
VWidth: 0
Flags: HW
PickledData: "(dp1
S'org.robofab.postScriptHintData'
p2
(dp3
s."
LayerCount: 2
Fore
SplineSet
647 -22 m 256
 923 -22 1132 104 1132 422 c 256
 1132 752 950 878 654 878 c 256
 594 878 519 860 476 841 c 257
 833 1446 l 257
 633 1446 l 257
 319 897 l 257
 225 728 178 568 178 426 c 256
 178 106 371 -22 647 -22 c 256
650 140 m 256
 469 140 365 197 365 425 c 256
 365 646 469 715 650 715 c 256
 829 715 945 668 945 422 c 256
 945 197 830 140 650 140 c 256
EndSplineSet
EndChar

StartChar: slash
Encoding: 16 47 415
Width: 768
VWidth: 0
Flags: HW
PickledData: "(dp1
S'org.robofab.postScriptHintData'
p2
(dp3
s."
LayerCount: 2
Fore
SplineSet
64 0 m 257
 251 0 l 257
 704 1506 l 257
 521 1506 l 257
 64 0 l 257
EndSplineSet
EndChar

StartChar: sterling
Encoding: 100 163 418
Width: 1273
VWidth: 0
Flags: HW
PickledData: "(dp1
S'org.robofab.postScriptHintData'
p2
(dp3
s."
LayerCount: 2
Fore
SplineSet
261 0 m 257
 1036 0 l 257
 1036 162 l 257
 462 162 l 257
 514 668 l 257
 1012 668 l 257
 1012 809 l 257
 529 809 l 257
 559 1104 l 258
 577 1275 666 1327 770 1327 c 256
 871 1327 984 1278 1023 1259 c 257
 1077 1398 l 257
 951 1459 841 1484 748 1484 c 256
 514 1484 385 1319 367 1125 c 257
 336 809 l 257
 166 809 l 257
 166 668 l 257
 323 668 l 257
 261 0 l 257
EndSplineSet
EndChar

StartChar: summation
Encoding: 476 8721 419
Width: 1123
VWidth: 0
Flags: HW
PickledData: "(dp1
S'org.robofab.postScriptHintData'
p2
(dp3
s."
LayerCount: 2
Fore
SplineSet
1076 0 m 257
 1076 162 l 257
 321 162 l 257
 777 738 l 257
 777 807 l 257
 317 1286 l 257
 1076 1286 l 257
 1076 1446 l 257
 112 1446 l 257
 112 1298 l 257
 597 762 l 257
 112 155 l 257
 112 0 l 257
 1076 0 l 257
EndSplineSet
EndChar

StartChar: t
Encoding: 85 116 420
Width: 832
VWidth: 0
Flags: HW
PickledData: "(dp1
S'org.robofab.postScriptHintData'
p2
(dp3
s."
AnchorPoint: "bot" 453 32 basechar 0
AnchorPoint: "top" 446 1280 basechar 0
AnchorPoint: "mid" 378 597 basechar 0
AnchorPoint: "caron.alt" 248 1060 basechar 0
LayerCount: 2
Fore
SplineSet
676 -8 m 258
 704 -8 l 257
 724 150 l 257
 703 150 l 258
 524 150 445 175 445 315 c 258
 445 918 l 257
 711 918 l 257
 711 1060 l 257
 445 1060 l 257
 445 1388 l 257
 287 1388 l 257
 264 1060 l 257
 80 1060 l 257
 80 918 l 257
 257 918 l 257
 257 303 l 258
 257 70 386 -8 676 -8 c 258
EndSplineSet
EndChar

StartChar: thorn
Encoding: 191 254 425
Width: 1194
VWidth: 0
Flags: HW
PickledData: "(dp1
S'org.robofab.postScriptHintData'
p2
(dp3
s."
LayerCount: 2
Fore
SplineSet
177 -408 m 257
 365 -408 l 257
 365 34 l 257
 416 8 496 -24 615 -24 c 256
 891 -24 1044 131 1044 344 c 258
 1044 729 l 258
 1044 933 910 1076 639 1076 c 256
 530 1076 425 1039 365 994 c 257
 365 1506 l 257
 179 1506 l 257
 177 -408 l 257
603 117 m 256
 494 117 413 152 365 179 c 257
 365 824 l 257
 382 850 477 934 610 934 c 256
 748 934 856 869 856 742 c 258
 856 324 l 258
 856 194 751 117 603 117 c 256
EndSplineSet
EndChar

StartChar: three
Encoding: 20 51 426
Width: 1250
VWidth: 0
Flags: HW
PickledData: "(dp1
S'org.robofab.postScriptHintData'
p2
(dp3
s."
LayerCount: 2
Fore
SplineSet
679 -22 m 256
 963 -22 1126 122 1126 398 c 256
 1126 642 1030 734 865 768 c 257
 1033 795 1097 901 1097 1091 c 256
 1097 1354 924 1468 675 1468 c 256
 418 1468 218 1393 218 1025 c 257
 410 1025 l 257
 410 1273 498 1306 676 1306 c 256
 848 1306 909 1224 909 1088 c 256
 909 924 896 840 587 840 c 257
 587 691 l 257
 887 691 935 622 935 399 c 256
 935 230 863 140 690 140 c 256
 491 140 416 189 400 431 c 257
 208 431 l 257
 242 91 357 -22 679 -22 c 256
EndSplineSet
Substitution2: "'sups' Superscript lookup 11 subtable" threesuperior
EndChar

StartChar: threequarters
Encoding: 127 190 427
Width: 2047
VWidth: 0
Flags: HW
PickledData: "(dp1
S'org.robofab.postScriptHintData'
p2
(dp3
s."
LayerCount: 2
Fore
SplineSet
540 653 m 256
 739 653 847 736 847 896 c 256
 847 1037 780 1090 664 1110 c 257
 782 1126 827 1187 827 1297 c 256
 827 1449 706 1515 532 1515 c 256
 351 1515 217 1477 212 1253 c 257
 347 1253 l 257
 346 1408 408 1421 533 1421 c 256
 654 1421 695 1374 695 1295 c 256
 695 1200 685 1151 469 1151 c 257
 469 1066 l 257
 679 1066 713 1025 713 897 c 256
 713 799 669 746 547 746 c 256
 408 746 342 774 334 932 c 257
 199 932 l 257
 217 719 314 653 540 653 c 256
1655 0 m 257
 1768 0 l 257
 1768 207 l 257
 1912 207 l 257
 1912 298 l 257
 1768 298 l 257
 1768 533 l 257
 1655 533 l 257
 1655 298 l 257
 1373 298 l 257
 1721 892 l 257
 1580 892 l 257
 1221 299 l 257
 1221 207 l 257
 1655 207 l 257
 1655 0 l 257
687 0 m 257
 819 0 l 257
 1497 1446 l 257
 1371 1446 l 257
 687 0 l 257
EndSplineSet
Ligature2: "'frac' Diagonal Fractions lookup 12 subtable" three slash four
EndChar

StartChar: threesuperior
Encoding: 116 179 428
Width: 1050
VWidth: 0
Flags: HW
PickledData: "(dp1
S'org.robofab.postScriptHintData'
p2
(dp3
s."
LayerCount: 2
Fore
SplineSet
557 666 m 256
 740 666 868 748 868 925 c 256
 868 1051 811 1118 691 1144 c 257
 809 1173 850 1249 850 1345 c 256
 850 1503 710 1584 558 1584 c 256
 380 1584 226 1532 226 1289 c 257
 355 1289 l 257
 355 1293 355 1297 355 1301 c 0
 355 1445 429 1475 555 1475 c 256
 678 1475 724 1410 724 1343 c 256
 724 1258 718 1194 478 1194 c 0
 476 1194 474 1194 472 1194 c 257
 472 1089 l 257
 474 1089 477 1089 479 1089 c 0
 692 1089 741 1041 741 918 c 257
 741 826 664 774 562 774 c 256
 439 774 347 797 346 971 c 257
 215 971 l 257
 221 729 354 666 557 666 c 256
EndSplineSet
EndChar

StartChar: tilde
Encoding: 410 732 429
Width: 512
VWidth: 0
Flags: HW
PickledData: "(dp1
S'org.robofab.postScriptHintData'
p2
(dp3
s."
AnchorPoint: "top" 256 1060 mark 0
LayerCount: 2
Fore
SplineSet
145 1203 m 256
 282 1203 314 1310 385 1310 c 256
 426 1310 455 1279 455 1217 c 257
 552 1217 l 257
 552 1382 486 1446 366 1446 c 256
 229 1446 197 1339 126 1339 c 256
 85 1339 56 1370 56 1432 c 257
 -41 1432 l 257
 -41 1267 25 1203 145 1203 c 256
EndSplineSet
EndChar

StartChar: trademark
Encoding: 469 8482 430
Width: 1843
VWidth: 0
Flags: HW
PickledData: "(dp1
S'org.robofab.postScriptHintData'
p2
(dp3
s."
LayerCount: 2
Fore
SplineSet
845 766 m 257
 970 766 l 257
 970 1329 l 257
 1149 931 l 257
 1310 931 l 257
 1482 1329 l 257
 1482 766 l 257
 1609 766 l 257
 1609 1446 l 257
 1413 1446 l 257
 1227 1033 l 257
 1043 1446 l 257
 845 1446 l 257
 845 766 l 257
345 766 m 257
 480 766 l 257
 480 1332 l 257
 692 1332 l 257
 692 1446 l 257
 133 1446 l 257
 133 1332 l 257
 345 1332 l 257
 345 766 l 257
EndSplineSet
EndChar

StartChar: two
Encoding: 19 50 431
Width: 1250
VWidth: 0
Flags: HW
PickledData: "(dp1
S'org.robofab.postScriptHintData'
p2
(dp3
s."
LayerCount: 2
Fore
SplineSet
231 0 m 257
 1087 0 l 257
 1087 156 l 257
 441 156 l 257
 842 581 l 258
 988 735 1095 834 1095 1059 c 256
 1095 1289 950 1468 639 1468 c 256
 347 1468 164 1342 164 1024 c 257
 365 1024 l 257
 365 1259 443 1306 654 1306 c 256
 832 1306 905 1242 905 1057 c 256
 905 912 846 847 700 689 c 258
 212 158 l 257
 231 0 l 257
EndSplineSet
Substitution2: "'sups' Superscript lookup 11 subtable" twosuperior
EndChar

StartChar: twosuperior
Encoding: 115 178 432
Width: 1050
VWidth: 0
Flags: HW
PickledData: "(dp1
S'org.robofab.postScriptHintData'
p2
(dp3
s."
LayerCount: 2
Fore
SplineSet
243 694 m 257
 823 694 l 257
 823 804 l 257
 405 804 l 257
 618 974 l 257
 744 1087 824 1165 824 1318 c 256
 824 1483 712 1584 526 1584 c 256
 338 1584 200 1498 202 1270 c 257
 345 1270 l 257
 344 1438 412 1479 533 1479 c 256
 633 1479 691 1430 691 1319 c 256
 691 1213 650 1165 540 1066 c 257
 232 808 l 257
 243 694 l 257
EndSplineSet
EndChar

StartChar: u
Encoding: 86 117 433
Width: 1222
VWidth: 0
Flags: HW
PickledData: "(dp1
S'org.robofab.postScriptHintData'
p2
(dp3
s."
AnchorPoint: "top" 622 1060 basechar 0
AnchorPoint: "ogonek" 957 0 basechar 0
LayerCount: 2
Fore
SplineSet
539 -22 m 256
 693 -22 794 38 848 133 c 257
 868 0 l 257
 1036 0 l 257
 1036 1060 l 257
 848 1060 l 257
 848 309 l 258
 848 220 760 122 576 122 c 256
 445 122 362 184 362 289 c 258
 362 1060 l 257
 174 1060 l 257
 174 290 l 258
 174 122 278 -22 539 -22 c 256
EndSplineSet
EndChar

StartChar: underscore
Encoding: 64 95 445
Width: 929
VWidth: 0
Flags: HW
PickledData: "(dp1
S'org.robofab.postScriptHintData'
p2
(dp3
s."
LayerCount: 2
Fore
SplineSet
14 -104 m 257
 915 -104 l 257
 915 46 l 257
 14 46 l 257
 14 -104 l 257
EndSplineSet
EndChar

StartChar: uni0307
Encoding: 412 775 462
Width: 412
VWidth: 0
Flags: HW
PickledData: "(dp1
S'org.robofab.postScriptHintData'
p2
(dp3
s."
AnchorPoint: "top" 218 1060 mark 0
LayerCount: 2
Fore
SplineSet
111 1327 m 257
 304 1327 l 257
 304 1535 l 257
 111 1535 l 257
 111 1327 l 257
EndSplineSet
EndChar

StartChar: uni030F
Encoding: 413 783 463
Width: 1024
VWidth: 0
Flags: HW
PickledData: "(dp1
S'org.robofab.postScriptHintData'
p2
(dp3
s."
AnchorPoint: "top" 618 1060 mark 0
LayerCount: 2
Fore
SplineSet
748 1293 m 257
 876 1293 l 257
 738 1674 l 257
 513 1674 l 257
 748 1293 l 257
338 1293 m 257
 466 1293 l 257
 328 1674 l 257
 103 1674 l 257
 338 1293 l 257
EndSplineSet
EndChar

StartChar: uni0311
Encoding: 414 785 464
Width: 512
VWidth: 0
Flags: HW
PickledData: "(dp1
S'org.robofab.postScriptHintData'
p2
(dp3
s."
AnchorPoint: "top" 267 1060 mark 0
LayerCount: 2
Fore
SplineSet
30 1256 m 257
 156 1256 l 257
 156 1316 206 1346 256 1346 c 256
 306 1346 356 1316 356 1256 c 257
 482 1256 l 257
 482 1371 395 1468 256 1468 c 256
 117 1468 30 1371 30 1256 c 257
EndSplineSet
EndChar

StartChar: uni0358
Encoding: 417 856 467
Width: 600
VWidth: 0
Flags: HW
PickledData: "(dp1
S'org.robofab.postScriptHintData'
p2
(dp3
s."
AnchorPoint: "top" 288 1060 mark 0
LayerCount: 2
Fore
SplineSet
181 1327 m 257
 374 1327 l 257
 374 1535 l 257
 181 1535 l 257
 181 1327 l 257
EndSplineSet
EndChar

StartChar: v
Encoding: 87 118 472
Width: 1104
VWidth: 0
Flags: HW
PickledData: "(dp1
S'org.robofab.postScriptHintData'
p2
(dp3
s."
LayerCount: 2
Fore
SplineSet
475 0 m 257
 665 0 l 257
 1040 1060 l 257
 856 1060 l 257
 572 200 l 257
 253 1060 l 257
 64 1060 l 257
 475 0 l 257
EndSplineSet
EndChar

StartChar: w
Encoding: 88 119 473
Width: 1614
VWidth: 0
Flags: HW
PickledData: "(dp1
S'org.robofab.postScriptHintData'
p2
(dp3
s."
AnchorPoint: "top" 812 1060 basechar 0
LayerCount: 2
Fore
SplineSet
357 0 m 257
 535 0 l 257
 806 845 l 257
 1077 0 l 257
 1252 0 l 257
 1562 1060 l 257
 1388 1060 l 257
 1161 228 l 257
 895 1060 l 257
 714 1060 l 257
 459 228 l 257
 224 1060 l 257
 52 1060 l 257
 357 0 l 257
EndSplineSet
EndChar

StartChar: x
Encoding: 89 120 478
Width: 1056
VWidth: 0
Flags: HW
PickledData: "(dp1
S'org.robofab.postScriptHintData'
p2
(dp3
s."
LayerCount: 2
Fore
SplineSet
64 0 m 257
 251 0 l 257
 534 403 l 257
 817 0 l 257
 1000 0 l 257
 626 535 l 257
 995 1060 l 257
 814 1060 l 257
 535 666 l 257
 259 1060 l 257
 70 1060 l 257
 441 533 l 257
 64 0 l 257
EndSplineSet
EndChar

StartChar: y
Encoding: 90 121 479
Width: 1118
VWidth: 0
Flags: HW
PickledData: "(dp1
S'org.robofab.postScriptHintData'
p2
(dp3
s."
AnchorPoint: "top" 585 1060 basechar 0
LayerCount: 2
Fore
SplineSet
198 -406 m 257
 510 -406 601 -280 712 45 c 258
 1060 1060 l 257
 870 1060 l 257
 599 216 l 257
 275 1060 l 257
 76 1060 l 257
 513 4 l 257
 461 -189 358 -259 198 -259 c 257
 198 -406 l 257
EndSplineSet
EndChar

StartChar: yen
Encoding: 102 165 483
Width: 1318
VWidth: 0
Flags: HW
PickledData: "(dp1
S'org.robofab.postScriptHintData'
p2
(dp3
s."
LayerCount: 2
Fore
SplineSet
1063 560 m 257
 1063 708 l 257
 260 708 l 257
 260 560 l 257
 1063 560 l 257
1063 252 m 257
 1063 400 l 257
 260 400 l 257
 260 252 l 257
 1063 252 l 257
EndSplineSet
Refer: 160 89 N 1 0 0 1 0 0 2
EndChar

StartChar: z
Encoding: 91 122 487
Width: 951
VWidth: 0
Flags: HW
PickledData: "(dp1
S'org.robofab.postScriptHintData'
p2
(dp3
s."
AnchorPoint: "top" 510 1060 basechar 0
AnchorPoint: "bot" 519 0 basechar 0
LayerCount: 2
Fore
SplineSet
136 0 m 257
 850 0 l 257
 850 132 l 257
 334 132 l 257
 841 935 l 257
 841 1060 l 257
 154 1060 l 257
 154 924 l 257
 637 924 l 257
 136 126 l 257
 136 0 l 257
EndSplineSet
EndChar

StartChar: zero
Encoding: 17 48 491
Width: 1250
VWidth: 0
Flags: HW
PickledData: "(dp1
S'org.robofab.postScriptHintData'
p2
(dp3
s."
LayerCount: 2
Fore
SplineSet
634 140 m 256
 348 140 334 363 334 619 c 258
 334 816 l 258
 334 1073 350 1306 634 1306 c 256
 918 1306 934 1073 934 816 c 258
 934 619 l 258
 934 363 920 140 634 140 c 256
634 -22 m 256
 1117 -22 1136 335 1136 636 c 258
 1136 790 l 258
 1136 1096 1119 1468 634 1468 c 256
 149 1468 132 1096 132 790 c 258
 132 636 l 258
 132 335 151 -22 634 -22 c 256
EndSplineSet
EndChar

StartChar: uni00AD
Encoding: 110 173 493
Width: 1024
VWidth: 0
Flags: HW
AnchorPoint: "mid" 508 567 mark 0
LayerCount: 2
Fore
SplineSet
172 499 m 257
 832 499 l 257
 832 642 l 257
 172 642 l 257
 172 499 l 257
EndSplineSet
EndChar

StartChar: uni02C9
Encoding: 405 713 505
Width: 513
VWidth: 0
Flags: HW
AnchorPoint: "top" 257 1060 mark 0
AnchorPoint: "mid" 257 1394 mark 0
LayerCount: 2
Fore
SplineSet
-8 1321 m 257
 521 1321 l 257
 521 1468 l 257
 -8 1468 l 257
 -8 1321 l 257
EndSplineSet
EndChar
